<?xml version="1.0" encoding="utf-8"?>
<!-- Generator: Adobe Illustrator 16.0.0, SVG Export Plug-In . SVG Version: 6.00 Build 0)  -->
<!DOCTYPE svg PUBLIC "-//W3C//DTD SVG 1.1//EN" "http://www.w3.org/Graphics/SVG/1.1/DTD/svg11.dtd">
<svg version="1.1" id="Layer_1" xmlns="http://www.w3.org/2000/svg" xmlns:xlink="http://www.w3.org/1999/xlink" x="0px" y="0px"
	 width="290px" height="29.004px" viewBox="-502.077 58.667 290 29.004" enable-background="new -502.077 58.667 290 29.004"
	 xml:space="preserve">
<path fill="#5EC1EC" d="M175.344,126.244c0,1.268-0.996,2.262-2.263,2.262h-22.625c-1.267,0-2.263-0.994-2.263-2.262v-13.574
	c0-1.269,0.996-2.264,2.263-2.264h22.625c1.267,0,2.263,0.995,2.263,2.264V126.244z"/>
<path fill="#5BBBE6" d="M174.665,111.085c0.407,0.406,0.679,0.994,0.679,1.584v13.574c0,0.588-0.226,1.176-0.679,1.584
	c-0.407,0.406-0.996,0.678-1.584,0.678h-22.625c-0.588,0-1.177-0.227-1.583-0.678L174.665,111.085z"/>
<path fill="#FFFFFF" d="M156.111,121.673l-0.225-0.77h-1.357l-0.227,0.77h-1.267l1.356-4.209h1.494l1.402,4.209H156.111z
	 M155.66,119.955l-0.182-0.68c-0.045-0.182-0.09-0.406-0.136-0.589c-0.045-0.181-0.09-0.36-0.136-0.543
	c0,0.183-0.045,0.317-0.09,0.498c-0.045,0.228-0.182,0.679-0.317,1.313H155.66z"/>
<path fill="#FFFFFF" d="M159.643,121.673l-0.86-3.031h-0.046c0.046,0.498,0.046,0.904,0.046,1.222v1.81h-0.996v-4.207h1.493
	l0.859,2.986h0.045l0.86-2.986h1.493v4.207h-1.041v-2.172c0-0.271,0-0.588,0.045-0.858h-0.045l-0.859,3.03H159.643L159.643,121.673z
	"/>
<path fill="#FFFFFF" d="M165.887,121.673h-2.488v-4.209h2.488v0.906h-1.357v0.678h1.267v0.906h-1.267v0.813h1.357V121.673z"/>
<path fill="#FFFFFF" d="M170.412,121.673H169.1l-0.814-1.313l-0.814,1.313h-1.267l1.403-2.127l-1.313-2.036h1.268l0.77,1.313
	l0.725-1.313h1.312l-1.312,2.127L170.412,121.673z"/>
<path fill="#FFFFFF" d="M156.111,121.673l-0.225-0.77h-1.357l-0.227,0.77h-1.267l1.356-4.209h1.494l1.402,4.209H156.111z
	 M155.66,119.955l-0.182-0.68c-0.045-0.182-0.09-0.406-0.136-0.589c-0.045-0.181-0.09-0.36-0.136-0.543
	c0,0.183-0.045,0.317-0.09,0.498c-0.045,0.228-0.182,0.679-0.317,1.313H155.66z"/>
<path fill="#FFFFFF" d="M159.643,121.673l-0.86-3.031h-0.046c0.046,0.498,0.046,0.904,0.046,1.222v1.81h-0.996v-4.207h1.493
	l0.859,2.986h0.045l0.86-2.986h1.493v4.207h-1.041v-2.172c0-0.271,0-0.588,0.045-0.858h-0.045l-0.859,3.03H159.643L159.643,121.673z
	"/>
<path fill="#FFFFFF" d="M165.887,121.673h-2.488v-4.209h2.488v0.906h-1.357v0.678h1.267v0.906h-1.267v0.813h1.357V121.673z"/>
<path fill="#FFFFFF" d="M170.412,121.673H169.1l-0.814-1.313l-0.814,1.313h-1.267l1.403-2.127l-1.313-2.036h1.268l0.77,1.313
	l0.725-1.313h1.312l-1.312,2.127L170.412,121.673z"/>
<path fill="#9BCEE0" d="M173.081,110.859c0.996,0,1.81,0.814,1.81,1.811v13.574c0,0.996-0.813,1.812-1.81,1.812h-22.625
	c-0.995,0-1.81-0.813-1.81-1.812v-13.574c0-0.996,0.813-1.811,1.81-1.811H173.081 M173.081,110.406h-22.625
	c-1.267,0-2.263,0.995-2.263,2.264v13.574c0,1.268,0.996,2.262,2.263,2.262h22.625c1.267,0,2.263-0.994,2.263-2.262v-13.574
	C175.344,111.402,174.348,110.406,173.081,110.406z"/>
<g>
	<path fill="#5565AF" d="M-408.35,83.976c0,2.021-1.588,3.605-3.608,3.605h-36.072c-2.02,0-3.608-1.584-3.608-3.605V62.333
		c0-2.022,1.588-3.609,3.608-3.609h36.072c2.02,0,3.608,1.587,3.608,3.609V83.976z"/>
	<path opacity="0.04" fill="#FFFFFF" enable-background="new    " d="M-409.434,59.808c0.65,0.647,1.084,1.584,1.084,2.525v21.643
		c0,0.937-0.361,1.875-1.084,2.524c-0.648,0.647-1.585,1.081-2.524,1.081h-36.072c-0.938,0-1.876-0.361-2.526-1.081L-409.434,59.808
		z"/>
	<path fill="#EA564B" d="M-429.996,68.393c-1.37-1.588-3.319-2.453-5.41-2.453c-3.969,0-7.213,3.244-7.213,7.214
		c0,3.967,3.244,7.214,7.213,7.214c2.094,0,4.04-0.866,5.41-2.454C-432.375,75.173-432.375,71.135-429.996,68.393L-429.996,68.393z"
		/>
	<path fill="#EA564B" d="M-429.996,68.393c-2.379,2.742-2.379,6.78,0,9.522c1.155-1.298,1.805-3.03,1.805-4.762
		S-428.841,69.692-429.996,68.393z"/>
	<path fill="#E9D419" d="M-424.657,65.94c-2.094,0-4.041,0.865-5.41,2.453c-0.29,0.359-0.578,0.72-0.795,1.154h1.66
		c0.288,0.432,0.504,0.938,0.648,1.443h-2.886c-0.143,0.432-0.288,0.938-0.288,1.441h3.535c0,0.218,0.071,0.505,0.071,0.722
		c0,0.216,0,0.504-0.071,0.72h-3.535c0.072,0.506,0.143,0.94,0.288,1.443h2.957c-0.143,0.503-0.36,1.011-0.647,1.444h-1.66
		c0.217,0.43,0.505,0.79,0.794,1.152c1.371,1.588,3.32,2.454,5.411,2.454c3.969,0,7.213-3.247,7.213-7.284
		C-417.372,69.042-420.616,65.94-424.657,65.94z"/>
	<path fill="#7684B7" d="M-411.959,59.446c1.588,0,2.887,1.3,2.887,2.888v21.643c0,1.588-1.298,2.89-2.887,2.89h-36.073
		c-1.588,0-2.887-1.3-2.887-2.89V62.333c0-1.588,1.299-2.888,2.887-2.888H-411.959 M-411.959,58.724h-36.073
		c-2.021,0-3.607,1.587-3.607,3.609v21.643c0,2.021,1.586,3.605,3.607,3.605h36.073c2.021,0,3.606-1.584,3.606-3.605V62.333
		C-408.35,60.312-409.938,58.724-411.959,58.724z"/>
</g>
<path fill="#F3F4F4" d="M211.544,126.244c0,1.268-0.995,2.262-2.263,2.262h-22.625c-1.268,0-2.264-0.994-2.264-2.262v-13.574
	c0-1.269,0.996-2.264,2.264-2.264h22.625c1.268,0,2.263,0.995,2.263,2.264V126.244z"/>
<path fill="#5565AF" d="M192.086,123.982h-3.619v-6.788c0-1.267,1.447-2.263,2.715-2.263h2.715v6.788
	C193.896,122.986,193.309,123.982,192.086,123.982z"/>
<path fill="#EA564B" d="M198.422,123.982h-3.621v-6.788c0-1.267,1.448-2.263,2.715-2.263h2.717v6.788
	C200.23,122.986,199.643,123.982,198.422,123.982z"/>
<path fill="#99CD76" d="M204.756,123.982h-3.619v-6.788c0-1.267,1.447-2.263,2.715-2.263h2.715v6.788
	C206.566,122.986,205.979,123.982,204.756,123.982z"/>
<path opacity="0.08" fill="#FFFFFF" enable-background="new    " d="M210.865,111.085c0.406,0.406,0.679,0.994,0.679,1.584v13.574
	c0,0.588-0.228,1.176-0.679,1.584c-0.408,0.406-0.996,0.678-1.584,0.678h-22.625c-0.588,0-1.176-0.227-1.584-0.678L210.865,111.085z
	"/>
<path fill="#F8F8F9" d="M209.281,110.859c0.996,0,1.811,0.814,1.811,1.811v13.574c0,0.996-0.814,1.812-1.811,1.812h-22.625
	c-0.996,0-1.811-0.813-1.811-1.812v-13.574c0-0.996,0.813-1.811,1.811-1.811H209.281 M209.281,110.406h-22.625
	c-1.268,0-2.264,0.995-2.264,2.264v13.574c0,1.268,0.996,2.262,2.264,2.262h22.625c1.268,0,2.263-0.994,2.263-2.262v-13.574
	C211.544,111.402,210.549,110.406,209.281,110.406z"/>
<g>
	<path fill="#F3F4F4" d="M-458.649,124.961c0,2.011-1.577,3.586-3.585,3.586h-35.861c-2.011,0-3.588-1.575-3.588-3.586v-21.515
		c0-2.012,1.577-3.588,3.588-3.588h35.861c2.008,0,3.585,1.576,3.585,3.588V124.961z"/>
	<circle fill="#009FDA" cx="-482.461" cy="114.203" r="7.172"/>
	<path fill="#009FDA" d="M-483.034,107.031c3.943,0,7.172,3.227,7.172,7.173c0,3.942-3.229,7.172-7.172,7.172V107.031z"/>
	<path fill="#009FDA" d="M-483.034,121.376v-14.346h5.164c3.947,0,7.173,3.227,7.173,7.173c0,3.942-3.226,7.172-7.173,7.172
		L-483.034,121.376L-483.034,121.376z"/>
	<circle fill="#F3F4F4" cx="-482.461" cy="114.204" r="6.743"/>
	<path fill="#009FDA" d="M-479.162,114.204c0-1.938-1.721-3.587-3.154-4.018v8.033
		C-480.883,117.791-479.162,116.141-479.162,114.204z"/>
	<path fill="#009FDA" d="M-487.696,114.204c0,1.938,1.721,3.587,3.154,4.016v-8.033
		C-485.904,110.618-487.696,112.267-487.696,114.204z"/>
	<path opacity="0.08" fill="#FFFFFF" enable-background="new    " d="M-459.724,100.937c0.644,0.643,1.074,1.574,1.074,2.51v21.515
		c0,0.933-0.359,1.864-1.074,2.511c-0.647,0.645-1.579,1.075-2.511,1.075h-35.861c-0.933,0-1.866-0.359-2.511-1.075
		L-459.724,100.937z"/>
	<path fill="#F8F8F9" d="M-462.234,100.576c1.578,0,2.87,1.293,2.87,2.871v21.515c0,1.578-1.291,2.873-2.87,2.873h-35.861
		c-1.579,0-2.869-1.292-2.869-2.873v-21.515c0-1.578,1.291-2.871,2.869-2.871H-462.234 M-462.234,99.859h-35.861
		c-2.009,0-3.586,1.576-3.586,3.588v21.515c0,2.011,1.578,3.586,3.586,3.586h35.861c2.009,0,3.585-1.575,3.585-3.586v-21.515
		C-458.649,101.436-460.227,99.859-462.234,99.859z"/>
</g>
<g>
	<path fill="#FFF9F0" d="M-408.644,124.96c0,2.011-1.579,3.585-3.588,3.585h-35.861c-2.007,0-3.586-1.574-3.586-3.585v-21.515
		c0-2.013,1.579-3.589,3.586-3.589h35.861c2.01,0,3.588,1.576,3.588,3.589V124.96z"/>
	<path fill="#414042" d="M-440.849,114.131c0.074,0.645-0.213,1.218-0.644,1.646c-0.5,0.433-1.148,0.575-1.793,0.575h-1.219v-4.302
		h1.362c0.571,0,1.219,0.143,1.65,0.574C-440.992,112.983-440.775,113.555-440.849,114.131z M-441.852,114.203
		c0-0.932-0.43-1.438-1.22-1.438h-0.501v2.873h0.43C-442.282,115.638-441.852,115.134-441.852,114.203z"/>
	<path fill="#414042" d="M-440.06,116.354v-4.302h0.936v4.373h-0.936V116.354z"/>
	<path fill="#414042" d="M-435.468,115.207c0,0.358-0.143,0.717-0.431,0.933c-0.359,0.215-0.718,0.359-1.148,0.359
		c-0.432,0-0.861-0.073-1.22-0.287v-0.862c0.289,0.145,0.574,0.216,0.717,0.289c0.215,0.071,0.36,0.071,0.573,0.071
		c0.145,0,0.36-0.071,0.502-0.145c0.071-0.071,0.142-0.216,0.142-0.358c0-0.072,0-0.144-0.07-0.215l-0.217-0.216
		c-0.213-0.145-0.358-0.217-0.573-0.289c-0.214-0.069-0.429-0.216-0.572-0.358c-0.146-0.146-0.217-0.288-0.288-0.43
		c-0.072-0.214-0.142-0.359-0.142-0.574c0-0.359,0.142-0.643,0.358-0.932c0.287-0.215,0.715-0.358,1.076-0.358
		c0.215,0,0.429,0,0.646,0.07l0.645,0.217l-0.288,0.717c-0.213-0.073-0.358-0.144-0.573-0.214c-0.142-0.074-0.287-0.074-0.429-0.074
		c-0.144,0-0.287,0.074-0.429,0.145c-0.07,0.07-0.145,0.144-0.145,0.287c0,0.073,0,0.143,0.075,0.214
		c0.07,0.075,0.07,0.146,0.213,0.146c0.144,0,0.287,0.143,0.573,0.286c0.359,0.145,0.645,0.289,0.863,0.574
		C-435.54,114.561-435.468,114.849-435.468,115.207z"/>
	<path fill="#414042" d="M-432.815,112.695c-0.289,0-0.574,0.146-0.79,0.362c-0.214,0.285-0.284,0.716-0.284,1.074
		c0,1.003,0.357,1.434,1.074,1.434c0.359,0,0.789-0.071,1.148-0.216v0.79c-0.359,0.143-0.79,0.215-1.22,0.215
		c-0.573,0.071-1.078-0.143-1.434-0.574c-0.359-0.43-0.576-1.076-0.501-1.648c0-0.429,0.07-0.86,0.213-1.219
		c0.144-0.359,0.43-0.575,0.718-0.79c0.286-0.218,0.714-0.288,1.076-0.288c0.429,0,0.86,0.07,1.289,0.288l-0.287,0.718
		c-0.144-0.075-0.357-0.146-0.503-0.216C-432.457,112.695-432.599,112.765-432.815,112.695z"/>
	<path fill="#414042" d="M-424.28,112.052h0.931l-1.504,4.373h-1.003l-1.507-4.373h0.932l0.79,2.581
		c0.07,0.145,0.07,0.358,0.142,0.501c0.075,0.145,0.075,0.287,0.075,0.43c0-0.286,0.072-0.647,0.215-0.933L-424.28,112.052z"/>
	<path fill="#414042" d="M-420.335,116.354h-2.511v-4.302h2.511v0.788h-1.577v0.933h1.504v0.788h-1.504v1.15h1.577V116.354z"/>
	<path fill="#414042" d="M-418.47,114.704v1.65h-0.934v-4.302h1.289c0.43-0.072,0.935,0.07,1.292,0.358
		c0.5,0.43,0.571,1.147,0.215,1.721c-0.144,0.217-0.36,0.358-0.572,0.502c0.359,0.646,0.79,1.29,1.289,1.865h-1.003l-1.078-1.649
		L-418.47,114.704L-418.47,114.704z M-418.47,113.987h0.287c0.214,0,0.43-0.069,0.645-0.144c0.142-0.07,0.216-0.288,0.216-0.43
		c0-0.143-0.075-0.356-0.216-0.429c-0.215-0.071-0.431-0.143-0.645-0.143h-0.287V113.987z"/>
	<circle fill="#E6A124" cx="-429.444" cy="114.202" r="2.15"/>
	<path fill="#E6A124" d="M-408.644,119.582v5.379c0,0.503-0.072,0.936-0.288,1.363c-0.36,0.86-1.077,1.576-1.938,1.938
		c-0.43,0.216-0.86,0.287-1.363,0.287h-32.273L-408.644,119.582z"/>
	<path opacity="0.08" fill="#FFFFFF" enable-background="new    " d="M-409.721,100.935c0.646,0.643,1.077,1.575,1.077,2.511v21.515
		c0,0.933-0.359,1.863-1.077,2.51c-0.644,0.645-1.579,1.075-2.511,1.075h-35.861c-0.932,0-1.864-0.358-2.511-1.075L-409.721,100.935
		z"/>
	<path fill="#F7F5F2" d="M-412.232,100.575c1.579,0,2.87,1.293,2.87,2.871v21.515c0,1.578-1.291,2.872-2.87,2.872h-35.861
		c-1.576,0-2.868-1.291-2.868-2.872v-21.515c0-1.578,1.289-2.871,2.868-2.871H-412.232 M-412.232,99.857h-35.861
		c-2.007,0-3.586,1.576-3.586,3.589v21.515c0,2.011,1.579,3.585,3.586,3.585h35.861c2.01,0,3.588-1.574,3.588-3.585v-21.515
		C-408.644,101.435-410.223,99.857-412.232,99.857z"/>
</g>
<g>
	<path fill="#F3F4F4" d="M-458.661,83.976c0,2.021-1.587,3.605-3.606,3.605h-36.073c-2.02,0-3.607-1.584-3.607-3.605V62.333
		c0-2.022,1.587-3.609,3.607-3.609h36.073c2.02,0,3.606,1.587,3.606,3.609V83.976z"/>
	<path fill="#5565AF" d="M-501.226,65.94v-3.606c0-2.022,1.588-3.609,3.607-3.609h34.629c2.021,0,3.609,1.587,3.609,3.609v3.606"/>
	<path fill="#E6A124" d="M-459.382,80.37v3.606c0,2.023-1.587,2.89-3.607,2.89h-34.631c-2.02,0-3.607-0.866-3.607-2.89V80.37"/>
	<path fill="#5565AF" d="M-489.466,75.605c0.144-0.576,0.36-1.082,0.649-1.585l2.454-4.979h1.804l-4.185,8.223h-1.877l-0.722-8.223
		h1.659l0.289,4.979v0.719C-489.395,75.029-489.466,75.318-489.466,75.605L-489.466,75.605z"/>
	<path fill="#5565AF" d="M-485.354,77.264l1.731-8.223h1.731l-1.731,8.223H-485.354z"/>
	<path fill="#5565AF" d="M-476.625,74.814c0,0.72-0.288,1.44-0.866,1.875c-0.649,0.432-1.442,0.722-2.235,0.647
		c-0.722,0.074-1.442-0.144-2.021-0.503v-1.516c0.578,0.362,1.298,0.577,2.021,0.577c0.361,0,0.721-0.072,1.01-0.215
		c0.216-0.146,0.36-0.363,0.36-0.651c0-0.144,0-0.29-0.072-0.431c-0.072-0.146-0.145-0.217-0.217-0.362
		c-0.071-0.144-0.362-0.287-0.722-0.577c-0.432-0.289-0.794-0.647-1.083-1.082c-0.217-0.359-0.289-0.721-0.289-1.154
		s0.144-0.939,0.363-1.297c0.216-0.362,0.577-0.65,1.009-0.867c0.505-0.217,1.009-0.289,1.515-0.289
		c0.793,0,1.514,0.215,2.236,0.576l-0.649,1.299c-0.505-0.29-1.011-0.434-1.587-0.434c-0.29,0-0.578,0.073-0.795,0.29
		c-0.216,0.144-0.288,0.434-0.288,0.65c0,0.215,0.072,0.432,0.216,0.575c0.217,0.291,0.577,0.506,0.867,0.649
		C-476.985,73.008-476.48,73.874-476.625,74.814L-476.625,74.814z"/>
	<path fill="#5565AF" d="M-471.068,75.318h-2.67l-0.937,1.949h-1.803l4.329-8.298h2.094l0.793,8.298h-1.659L-471.068,75.318z
		 M-471.14,73.874l-0.146-1.947c-0.071-0.504-0.071-0.938-0.071-1.442v-0.218c-0.145,0.507-0.362,1.011-0.65,1.443l-1.083,2.162
		h1.95V73.874z"/>
	<path opacity="0.04" fill="#FFFFFF" enable-background="new    " d="M-459.741,59.808c0.648,0.647,1.081,1.584,1.081,2.525v21.643
		c0,0.937-0.361,1.875-1.081,2.524c-0.651,0.647-1.588,1.081-2.526,1.081h-36.073c-0.938,0-1.875-0.361-2.524-1.081L-459.741,59.808
		z"/>
	<path fill="#F8F8F9" d="M-462.267,59.446c1.587,0,2.885,1.3,2.885,2.888v21.643c0,1.588-1.298,2.89-2.885,2.89h-36.073
		c-1.588,0-2.886-1.3-2.886-2.89V62.333c0-1.588,1.297-2.888,2.886-2.888H-462.267 M-462.267,58.724h-36.073
		c-2.02,0-3.607,1.587-3.607,3.609v21.643c0,2.021,1.587,3.605,3.607,3.605h36.073c2.02,0,3.606-1.584,3.606-3.605V62.333
		C-458.661,60.312-460.248,58.724-462.267,58.724z"/>
</g>
<path fill="#FFFFFF" d="M102.943,179.82c0,1.268-0.995,2.264-2.262,2.264H78.056c-1.267,0-2.262-0.996-2.262-2.264v-13.574
	c0-1.268,0.995-2.263,2.262-2.263h22.625c1.267,0,2.262,0.995,2.262,2.263V179.82z"/>
<path opacity="0.04" fill="#FFFFFF" enable-background="new    " d="M101.994,164.662c0.406,0.406,0.679,0.994,0.679,1.582v13.575
	c0,0.589-0.228,1.177-0.679,1.584c-0.407,0.407-0.996,0.679-1.584,0.679H77.785c-0.588,0-1.176-0.227-1.583-0.679L101.994,164.662z"
	/>
<path fill="#F3F4F4" d="M175.118,153.349c0,1.268-0.996,2.262-2.263,2.262H150.23c-1.268,0-2.264-0.994-2.264-2.262v-13.575
	c0-1.269,0.996-2.263,2.264-2.263h22.625c1.267,0,2.263,0.994,2.263,2.263V153.349z"/>
<path fill="none" d="M156.384,143.123l1.72,4.435L156.384,143.123z"/>
<path fill="none" d="M163.443,151.494l-1.766,0.678c-0.09,0.045-0.136,0.137-0.09,0.228l0,0c0.045,0.09,0.137,0.136,0.227,0.136
	l1.765-0.68c0.091-0.045,0.136-0.136,0.091-0.227l0,0c0-0.09-0.091-0.135-0.136-0.135
	C163.488,151.448,163.488,151.494,163.443,151.494z"/>
<path fill="none" d="M159.823,152.037l2.487-0.951L159.823,152.037z"/>
<path fill="none" d="M164.077,145.566c-0.498,0-0.95,0.271-1.177,0.725l0.227,0.588l0,0c0-0.543,0.407-0.95,0.95-0.95
	s0.95,0.407,0.95,0.95s-0.407,0.951-0.95,0.951c-0.271,0-0.543-0.137-0.724-0.317l0.226,0.589c0.181,0.045,0.317,0.09,0.498,0.09
	c0.724,0,1.312-0.588,1.312-1.313S164.846,145.566,164.077,145.566L164.077,145.566z"/>
<path fill="#003F62" d="M161.588,144.796c0.182-0.045,0.407-0.092,0.68-0.137l1.131-0.136l0,0c-0.182-0.315-0.498-0.543-0.86-0.543
	c-0.136,0-0.317,0.045-0.453,0.091c-0.045,0-0.045,0-0.045,0.045l0,0C161.859,144.298,161.678,144.525,161.588,144.796z"/>
<path fill="#003F62" d="M167.561,145.294c0-0.092-0.09-0.228-0.181-0.228h-3.167l-1.494,0.136c-0.633,0.092-1.267,0.228-1.855,0.407
	c-0.09,0.045-0.18,0.136-0.18,0.228l0.18,3.574v0.045l0,0v0.045h0.091c0.996-0.315,2.037-0.498,3.077-0.543l0.543,1.449
	l-2.127,0.813l-2.488,0.95l0,0l-1.721-4.479l-1.674-4.435l0,0l4.617-1.766l0.678,1.811c-0.045,0.045-0.09,0.045-0.18,0.091
	c-0.996,0.543-1.9,1.222-2.761,1.989c-0.09,0.047-0.09,0.183-0.045,0.271l1.358,2.354l-0.137-2.217c0-0.316,0.182-0.543,0.452-0.68
	c0.045,0,0.317-0.09,0.813-0.181c0-0.091,0.046-0.228,0.046-0.316c0.09-0.317,0.317-0.589,0.633-0.77h0.045
	c0.181-0.091,0.362-0.136,0.588-0.136l0,0c0.498,0,0.95,0.271,1.177,0.724c0.045,0.046,0.045,0.091,0.045,0.136h0.09
	c0.453,0,0.859-0.045,1.267-0.045l0,0c0.407,0,0.86,0,1.267,0.045l-1.447-2.533c-0.045-0.091-0.182-0.136-0.271-0.136
	c-0.724,0.226-1.447,0.497-2.126,0.904l-0.996-2.579c-0.181-0.452-0.724-0.725-1.176-0.543l-4.661,1.765
	c-0.451,0.183-0.724,0.726-0.543,1.177l4.073,10.68c0.181,0.453,0.724,0.725,1.176,0.543l4.661-1.766
	c0.453-0.181,0.725-0.724,0.543-1.177l-0.814-2.036h2.309c0.045,0,0.09,0,0.136,0.047h0.181v-0.047l0,0V145.294L167.561,145.294z
	 M163.579,151.856l-1.765,0.679c-0.09,0.045-0.182,0-0.227-0.136s0-0.228,0.09-0.228l1.766-0.678c0.091-0.047,0.181,0,0.227,0.135
	C163.714,151.673,163.669,151.81,163.579,151.856L163.579,151.856z M164.077,148.19c-0.181,0-0.317-0.045-0.498-0.09
	c-0.498-0.183-0.813-0.679-0.813-1.222c0-0.228,0.045-0.407,0.135-0.59c0.317-0.634,1.132-0.904,1.766-0.588
	s0.904,1.131,0.588,1.766C165.027,147.917,164.574,148.19,164.077,148.19z"/>
<path fill="#003F62" d="M164.077,147.828c0.543,0,0.95-0.406,0.95-0.949s-0.407-0.951-0.95-0.951s-0.95,0.408-0.95,0.951l0,0
	c0,0.226,0.09,0.451,0.227,0.633C163.579,147.693,163.805,147.828,164.077,147.828z"/>
<path opacity="0.08" fill="#FFFFFF" enable-background="new    " d="M174.439,138.19c0.406,0.407,0.679,0.995,0.679,1.584v13.575
	c0,0.588-0.228,1.176-0.679,1.583c-0.408,0.407-0.996,0.679-1.584,0.679H150.23c-0.588,0-1.176-0.226-1.584-0.679L174.439,138.19z"
	/>
<path fill="#F8F8F9" d="M172.855,137.962c0.996,0,1.81,0.814,1.81,1.812v13.575c0,0.995-0.813,1.811-1.81,1.811H150.23
	c-0.996,0-1.811-0.814-1.811-1.811v-13.575c0-0.996,0.814-1.812,1.811-1.812H172.855 M172.855,137.511H150.23
	c-1.268,0-2.264,0.994-2.264,2.263v13.575c0,1.268,0.996,2.262,2.264,2.262h22.625c1.267,0,2.263-0.994,2.263-2.262v-13.575
	C175.118,138.505,174.122,137.511,172.855,137.511z"/>
<path fill="#FFFFFF" d="M102.717,153.349c0,1.268-0.994,2.262-2.262,2.262H77.83c-1.267,0-2.263-0.994-2.263-2.262v-13.575
	c0-1.269,0.996-2.263,2.263-2.263h22.625c1.268,0,2.262,0.994,2.262,2.263V153.349z"/>
<path fill="#E2231A" d="M96.699,145.973l5.792,6.562c-0.046-1.584,0.045-4.479,0.045-6.063c0-1.721,0.315-6.518-0.95-5.385
	L96.699,145.973z"/>
<path fill="#E2231A" d="M84.934,141.539c3.123,0,5.43,0.77,5.702,3.394l3.258-3.394h8.688c0-4.662-1.268-3.893-8.054-3.893
	l-16.969,0.136c-2.353,0-1.855,3.077-1.855,3.712C77.785,141.539,83.034,141.539,84.934,141.539z"/>
<path fill="#E2231A" d="M79.821,144.841l-1.086,3.031h4.48c1.312,0,1.719-0.543,2.036-1.584s-0.453-1.447-1.357-1.447H79.821z"/>
<path fill="#E2231A" d="M93.939,151.358l-3.439-4.39c-0.633,2.986-2.715,4.344-6.652,4.344h-8.1c0,2.852,0.271,4.118,2.715,4.118
	l20.137,0.045c3.937,0,3.756-0.588,3.756-4.117H93.939L93.939,151.358z"/>
<path fill="#F8F8F9" d="M100.455,137.962c0.996,0,1.811,0.814,1.811,1.812v13.575c0,0.995-0.814,1.811-1.811,1.811H77.83
	c-0.996,0-1.81-0.814-1.81-1.811v-13.575c0-0.996,0.814-1.812,1.81-1.812H100.455 M100.455,137.511H77.83
	c-1.267,0-2.263,0.994-2.263,2.263v13.575c0,1.268,0.996,2.262,2.263,2.262h22.625c1.268,0,2.262-0.994,2.262-2.262v-13.575
	C102.717,138.505,101.723,137.511,100.455,137.511z"/>
<rect x="76.246" y="140.089" fill="none" width="26.245" height="10.047"/>
<path fill="#4B8BBF" d="M247.744,153.303c0,1.268-0.996,2.263-2.264,2.263h-22.625c-1.267,0-2.263-0.995-2.263-2.263v-13.575
	c0-1.268,0.996-2.262,2.263-2.262h22.625c1.268,0,2.264,0.994,2.264,2.262V153.303z"/>
<g>
	<path fill="#E862B5" d="M-459.869,9.787c0,1.971-1.547,3.518-3.518,3.518h-35.175c-1.971,0-3.516-1.547-3.516-3.518v-21.105
		c0-1.971,1.545-3.516,3.516-3.516h35.175c1.971,0,3.518,1.545,3.518,3.516V9.787z"/>
	<path fill="#E0188D" d="M-463.386-14.133c1.548,0,2.814,1.266,2.814,2.814V9.787c0,1.547-1.265,2.814-2.814,2.814h-35.175
		c-1.547,0-2.815-1.265-2.815-2.814v-21.105c0-1.547,1.267-2.814,2.815-2.814H-463.386"/>
	<path fill="#FFFFFF" d="M-488.854-9.983c0.774,0,1.409-0.631,1.409-1.406c0-0.773-0.635-1.406-1.409-1.406
		c-0.772,0-1.406,0.633-1.406,1.406C-490.259-10.614-489.626-9.983-488.854-9.983"/>
	<path fill="#FFFFFF" d="M-472.11-9.913c0.774,0,1.409-0.632,1.409-1.406c0-0.772-0.635-1.406-1.409-1.406
		c-0.772,0-1.406,0.634-1.406,1.406C-473.516-10.544-472.883-9.913-472.11-9.913"/>
	<path fill="#FFFFFF" d="M-480.482-2.383c-4.852,0-8.863-3.94-8.863-8.863h0.987c0,4.361,3.516,7.877,7.876,7.877
		c4.364,0,7.88-3.516,7.88-7.877h0.985C-471.688-6.324-475.626-2.383-480.482-2.383z"/>
	<path fill="#FFFFFF" d="M-469.647,10.914V6.478h-0.632V5.707h1.406v4.432h0.633v0.775H-469.647z M-471.406,10.914v-0.354V7.887
		h-0.562V7.113h1.406v3.024h0.563v0.774h-1.407V10.914z M-470.701,6.478c-0.213,0.213-0.492,0.213-0.705,0
		c-0.07-0.07-0.14-0.209-0.14-0.35c0-0.143,0.07-0.283,0.14-0.354c0.212-0.211,0.492-0.211,0.705,0c0.07,0.07,0.14,0.211,0.14,0.354
		C-470.562,6.269-470.631,6.408-470.701,6.478 M-473.164,9.435c-0.07-0.072-0.212-0.072-0.282-0.143
		c-0.14-0.069-0.282-0.069-0.422-0.069s-0.209,0-0.353,0.069c-0.07,0-0.14,0.07-0.209,0.143c-0.143,0.07-0.214,0.21-0.143,0.352
		c0,0.141,0.07,0.211,0.143,0.352c0.07,0.072,0.07,0.072,0.14,0.072s0.14,0,0.213,0c0.14,0,0.351-0.072,0.492-0.142
		c0.14-0.071,0.279-0.142,0.42-0.282V9.435H-473.164z M-473.164,10.914V10.63c-0.143,0.072-0.282,0.142-0.492,0.211
		c-0.143,0.072-0.352,0.072-0.492,0.072c-0.354,0-0.633-0.142-0.917-0.354c-0.49-0.421-0.49-1.196,0-1.688l0.073-0.069
		c0.141-0.14,0.281-0.21,0.49-0.282c0.211-0.07,0.354-0.07,0.563-0.07c0.14,0,0.352,0,0.492,0.07h0.14l0.143,0.072V8.169
		c0-0.072,0-0.143,0-0.213c0-0.069-0.07-0.069-0.07-0.139c-0.073-0.07-0.143-0.07-0.212-0.07s-0.209,0-0.282,0
		c-0.071,0-0.141,0-0.211,0l-0.211,0.07l-0.212,0.069l-0.211,0.069l-0.281-0.631l0.422-0.143l0.352-0.07c0.07,0,0.209,0,0.279,0
		c0.213,0,0.422,0,0.565,0.07c0.14,0.069,0.351,0.143,0.492,0.212c0.14,0.069,0.209,0.212,0.279,0.353
		c0.073,0.14,0.073,0.352,0.073,0.492v1.898h0.562v0.775H-473.164z M-475.696,7.887c-0.212,0-0.352,0-0.563,0.069
		c-0.141,0.07-0.281,0.141-0.354,0.213c-0.07,0.07-0.14,0.14-0.209,0.281c-0.07,0.141-0.07,0.281-0.07,0.42v1.267h0.701v0.774
		h-1.476V7.887h-0.635V7.113h1.409v0.422l0.14-0.071l0.212-0.142c0.14-0.069,0.281-0.139,0.421-0.139c0.141,0,0.281,0,0.422,0h0.351
		v0.701h-0.349V7.887z M-479.286,10.983c-0.14,0-0.209,0-0.352-0.069c-0.07,0-0.209-0.072-0.279-0.142
		c-0.073-0.069-0.143-0.142-0.143-0.282s-0.07-0.21-0.07-0.353v-2.25h-0.562V7.113h0.562V6.408h0.774v0.775h0.703v0.773h-0.703
		v2.181c0,0.069,0,0.069,0,0.143l0,0l0.632-0.073v0.775L-479.286,10.983L-479.286,10.983z M-481.675,7.957l-1.688,4.504h-0.774
		l0.631-1.758l-1.125-2.676h-0.633V7.252h1.126l0.14,0.422l0.774,1.971l0.631-1.618h-0.42V7.252h1.831v0.774L-481.675,7.957z
		 M-486.53,9.435c-0.07-0.072-0.213-0.072-0.284-0.143c-0.14-0.069-0.281-0.069-0.42-0.069s-0.209,0-0.353,0.069
		c-0.071,0-0.141,0.07-0.211,0.143c-0.141,0.07-0.214,0.21-0.141,0.352c0,0.141,0.071,0.211,0.141,0.352
		c0.07,0.072,0.07,0.072,0.14,0.072c0.071,0,0.142,0,0.214,0c0.14,0,0.351-0.072,0.49-0.142c0.14-0.071,0.281-0.142,0.42-0.282
		V9.435H-486.53z M-486.53,10.914V10.63c-0.143,0.072-0.284,0.142-0.492,0.211c-0.141,0.072-0.352,0.072-0.492,0.072
		c-0.353,0-0.635-0.142-0.917-0.354c-0.492-0.421-0.492-1.196,0-1.688l0.073-0.069c0.14-0.14,0.279-0.21,0.492-0.282
		c0.21-0.07,0.353-0.07,0.562-0.07c0.141,0,0.352,0,0.49,0.07h0.141l0.143,0.072V8.169c0-0.072,0-0.143,0-0.213
		c0-0.069-0.07-0.069-0.07-0.139c-0.073-0.07-0.143-0.07-0.214-0.07c-0.07,0-0.209,0-0.281,0c-0.07,0-0.143,0-0.212,0l-0.209,0.07
		l-0.213,0.069l-0.211,0.069l-0.281-0.631l0.42-0.143l0.354-0.07c0.14,0,0.209-0.07,0.351-0.07c0.211,0,0.42,0,0.563,0.07
		c0.14,0.07,0.353,0.14,0.491,0.211c0.141,0.071,0.211,0.211,0.284,0.353c0.07,0.142,0.07,0.354,0.07,0.493v1.899h0.561v0.772
		L-486.53,10.914z M-489.626,6.973c0-0.073-0.072-0.212-0.141-0.284c-0.07-0.07-0.21-0.14-0.283-0.14
		c-0.141-0.071-0.351-0.071-0.492-0.071h-0.702v1.689h0.702c0.143,0,0.352,0,0.492-0.07c0.143,0,0.212-0.07,0.352-0.143
		c0.072-0.07,0.143-0.141,0.143-0.212c0.07-0.14,0.07-0.211,0.07-0.351C-489.555,7.252-489.555,7.113-489.626,6.973 M-488.854,8.027
		c-0.07,0.213-0.209,0.354-0.352,0.564c-0.141,0.141-0.351,0.279-0.562,0.352c-0.21,0.07-0.492,0.141-0.705,0.07h-0.844v1.97h-1.476
		V10.21h0.631V6.551h-0.631V5.707h2.25c0.212,0,0.492,0,0.704,0.07c0.211,0.07,0.421,0.141,0.561,0.352
		c0.144,0.141,0.284,0.354,0.354,0.492c0.07,0.211,0.141,0.492,0.141,0.703C-488.782,7.607-488.782,7.818-488.854,8.027"/>
	<path opacity="0.04" fill="#FFFFFF" enable-background="new    " d="M-460.994-13.709c0.632,0.633,1.055,1.547,1.055,2.463V9.858
		c0,0.914-0.354,1.827-1.055,2.461c-0.635,0.634-1.549,1.056-2.462,1.056h-35.175c-0.914,0-1.828-0.352-2.462-1.056L-460.994-13.709
		z"/>
</g>
<path fill="#1460A7" d="M245.48,137.962c0.996,0,1.811,0.814,1.811,1.812v13.575c0,0.995-0.814,1.811-1.811,1.811h-22.625
	c-0.994,0-1.81-0.814-1.81-1.811v-13.575c0-0.996,0.813-1.812,1.81-1.812H245.48"/>
<path fill="#FFFFFF" d="M232.449,147.104l-1.131,3.077l-0.092-0.635c-0.271-0.813-0.859-1.492-1.629-1.899l1.041,3.937h1.223
	l1.854-4.523L232.449,147.104z"/>
<polygon fill="#FFFFFF" points="233.445,151.583 234.169,147.104 235.346,147.104 234.621,151.583 "/>
<path fill="#FFFFFF" d="M238.83,147.195c-0.316-0.136-0.68-0.181-1.041-0.181c-1.131,0-1.946,0.633-1.946,1.493
	c0,0.633,0.589,0.994,0.995,1.222c0.453,0.226,0.589,0.36,0.589,0.543c0,0.315-0.362,0.452-0.679,0.452
	c-0.361,0-0.77-0.092-1.086-0.227l-0.137-0.091l-0.18,0.995c0.405,0.182,0.858,0.227,1.313,0.227c1.221,0,2.035-0.588,2.035-1.539
	c0-0.496-0.316-0.903-0.995-1.221c-0.407-0.227-0.679-0.361-0.679-0.543s0.227-0.408,0.679-0.408c0.317,0,0.589,0.047,0.86,0.183
	l0.09,0.045L238.83,147.195L238.83,147.195z"/>
<path fill="#FFFFFF" d="M241.816,147.104h-0.905c-0.271-0.045-0.498,0.136-0.589,0.362l-1.719,4.117h1.222l0.226-0.68h1.494
	c0.045,0.182,0.135,0.68,0.135,0.68h1.086L241.816,147.104L241.816,147.104z M240.368,150l0.452-1.268c0,0,0.091-0.271,0.136-0.452
	l0.091,0.407l0.271,1.313H240.368z"/>
<path fill="#FF9E16" d="M230.277,147.104h-1.855v0.091c1.268,0.271,2.354,1.178,2.807,2.354l-0.408-2.082
	C230.775,147.24,230.549,147.059,230.277,147.104L230.277,147.104z"/>
<polygon fill="#FFFFFF" points="224.848,146.018 224.123,146.018 223.264,142.126 224.078,141.99 224.666,145.023 226.16,142.037 
	226.93,142.037 "/>
<path fill="#FFFFFF" d="M228.738,144.751h-1.764c-0.047,0.543,0.18,0.769,0.633,0.769c0.361,0,0.725-0.136,0.996-0.36v0.543
	c-0.362,0.227-0.726,0.315-1.133,0.361c-0.769,0-1.267-0.453-1.132-1.447c0.046-0.771,0.681-1.404,1.494-1.449
	c0.813,0,1.086,0.635,0.995,1.402C228.784,144.615,228.738,144.705,228.738,144.751L228.738,144.751z M227.698,143.619
	c-0.272,0-0.544,0.228-0.634,0.68h1.086C228.15,143.891,228.016,143.619,227.698,143.619L227.698,143.619z"/>
<path fill="#FFFFFF" d="M229.87,144.389l-0.228,1.584h-0.679l0.407-2.761h0.589v0.543c0.226-0.361,0.588-0.588,0.995-0.633v0.679
	C230.504,143.891,230.143,144.073,229.87,144.389L229.87,144.389z"/>
<path fill="#FFFFFF" d="M230.956,145.973l0.407-2.761h0.679l-0.407,2.761H230.956z M231.771,142.76
	c-0.182,0-0.317-0.091-0.362-0.271c0-0.045,0-0.045,0-0.091c0.045-0.227,0.228-0.406,0.452-0.406c0.182,0,0.316,0.135,0.361,0.316
	c0,0.045,0,0.045,0,0.09C232.178,142.58,231.996,142.76,231.771,142.76L231.771,142.76z"/>
<path fill="#FFFFFF" d="M233.941,142.444c-0.226-0.046-0.406,0.136-0.406,0.316l0,0l-0.045,0.452h0.543v0.543h-0.635l-0.361,2.218
	h-0.678l0.361-2.218h-0.408l0.092-0.543h0.406l0.092-0.452c0.045-0.544,0.543-0.905,1.039-0.859c0,0,0,0,0.047,0
	c0.09,0,0.181,0,0.271,0v0.543C234.123,142.489,234.033,142.489,233.941,142.444L233.941,142.444z"/>
<path fill="#FFFFFF" d="M233.941,145.973l0.408-2.761h0.678l-0.406,2.761H233.941z M234.803,142.76
	c-0.182,0-0.316-0.091-0.361-0.271c0-0.045,0-0.045,0-0.091c0.045-0.227,0.226-0.406,0.451-0.406c0.183,0,0.316,0.135,0.362,0.316
	c0,0.045,0,0.045,0,0.09C235.209,142.58,235.027,142.76,234.803,142.76L234.803,142.76z"/>
<path fill="#FFFFFF" d="M237.744,144.751h-1.766c-0.045,0.543,0.182,0.769,0.633,0.769c0.363,0,0.725-0.136,0.996-0.36v0.543
	c-0.361,0.227-0.725,0.315-1.131,0.361c-0.771,0-1.269-0.453-1.131-1.447c0.045-0.771,0.678-1.404,1.491-1.449
	c0.813,0,1.086,0.635,0.996,1.402C237.744,144.615,237.744,144.705,237.744,144.751L237.744,144.751z M236.703,143.619
	c-0.271,0-0.543,0.228-0.635,0.68h1.086C237.109,143.891,237.02,143.619,236.703,143.619L236.703,143.619z"/>
<path fill="#FFFFFF" d="M239.779,145.973v-0.407c-0.227,0.271-0.543,0.452-0.904,0.452c-0.588,0-0.951-0.452-0.814-1.356
	c0.135-1.041,0.814-1.494,1.447-1.494c0.227,0,0.408,0.045,0.635,0.092l0.227-1.313l0.679-0.091l-0.634,4.118H239.779z
	 M240.006,143.846c-0.181-0.091-0.316-0.136-0.498-0.136c-0.361,0-0.678,0.271-0.77,0.904c-0.09,0.543,0.092,0.77,0.408,0.77
	c0.271-0.045,0.543-0.182,0.679-0.361L240.006,143.846L240.006,143.846z"/>
<path fill="#FFFFFF" d="M242.449,146.018c-0.271,0-0.588-0.045-0.814-0.136l0.453-2.941l0.543-0.09l-0.182,1.268
	c0.182-0.182,0.408-0.271,0.634-0.271c0.452,0,0.724,0.316,0.634,1.041C243.626,145.52,243.083,146.018,242.449,146.018
	L242.449,146.018z M242.857,144.298c-0.183,0-0.363,0.136-0.498,0.271l-0.137,0.95c0.092,0.046,0.227,0.046,0.316,0.046
	c0.316,0,0.543-0.183,0.634-0.679C243.219,144.48,243.083,144.298,242.857,144.298L242.857,144.298z"/>
<path fill="#FFFFFF" d="M244.893,146.109c-0.271,0.498-0.543,0.68-0.949,0.68c-0.045,0-0.137,0-0.182,0v-0.453
	c0.09,0,0.182,0.045,0.227,0.045c0.136,0,0.316-0.09,0.361-0.227l0.092-0.136l-0.453-2.081l0.544-0.046l0.271,1.493l0.68-1.447
	h0.543L244.893,146.109L244.893,146.109z"/>
<path opacity="0.04" fill="#FFFFFF" enable-background="new    " d="M247.02,138.054c0.408,0.406,0.681,0.994,0.681,1.584v13.574
	c0,0.588-0.228,1.177-0.681,1.584c-0.406,0.406-0.994,0.679-1.584,0.679h-22.625c-0.588,0-1.176-0.226-1.584-0.679L247.02,138.054z"
	/>
<g>
	<path fill="#FFFFFF" d="M-308.635,124.96c0,2.011-1.579,3.588-3.588,3.588h-35.861c-2.008,0-3.586-1.577-3.586-3.588v-21.515
		c0-2.011,1.579-3.589,3.586-3.589h35.861c2.009,0,3.588,1.578,3.588,3.589V124.96z"/>
	<path fill="#FFFFFF" d="M-339.19,117.715l-0.359-1.222h-2.152l-0.359,1.222h-2.007l2.151-6.671h2.364l2.226,6.671H-339.19z
		 M-339.907,114.989l-0.285-1.073c-0.072-0.289-0.146-0.647-0.218-0.933c-0.07-0.288-0.142-0.576-0.214-0.86
		c0,0.284-0.07,0.502-0.145,0.79c-0.073,0.355-0.287,1.073-0.501,2.076H-339.907z"/>
	<path fill="#FFFFFF" d="M-333.523,117.715l-1.364-4.803h-0.072c0.072,0.785,0.072,1.433,0.072,1.936v2.867h-1.576v-6.668h2.294
		l1.362,4.729h0.071l1.362-4.729h2.369v6.668h-1.65v-3.441c0-0.431,0-0.932,0.071-1.361h-0.071l-1.363,4.803H-333.523
		L-333.523,117.715z"/>
	<path fill="#FFFFFF" d="M-323.624,117.715h-3.946v-6.671h3.946v1.435h-2.154v1.076h2.007v1.434h-2.007v1.29h2.154V117.715z"/>
	<path fill="#FFFFFF" d="M-316.452,117.715h-2.082l-1.29-2.082l-1.292,2.082h-2.009l2.223-3.37l-2.08-3.229h2.009l1.219,2.079
		l1.148-2.079h2.081l-2.081,3.37L-316.452,117.715z"/>
	<path fill="#F4F4F4" d="M-312.223,100.575c1.579,0,2.871,1.293,2.871,2.871v21.515c0,1.578-1.289,2.871-2.871,2.871h-35.861
		c-1.576,0-2.868-1.293-2.868-2.871v-21.515c0-1.578,1.292-2.871,2.868-2.871H-312.223"/>
	<rect x="-349.229" y="111.191" fill="#F6921E" width="6.237" height="6.238"/>
	<path fill="#FFFFFF" d="M-346.72,114.274c0,0.359-0.073,0.574-0.429,0.574c-0.358,0-0.431-0.29-0.431-0.503v-1.866l-0.501,0.146
		v1.793c0,0.499,0.359,1.001,0.932,1.001c0.502,0,1.005-0.355,1.005-0.932v-2.008l-0.501,0.146"/>
	<path fill="#FFFFFF" d="M-344.926,113.268c-0.216,0-0.43,0.074-0.573,0.146v-0.289l-0.503,0.144v2.802l0.503-0.146v-0.717
		c0.143,0.144,0.358,0.144,0.573,0.144c0.572,0,1.074-0.499,1.074-1.076C-343.852,113.698-344.282,113.196-344.926,113.268
		 M-344.926,114.848c-0.359,0-0.647-0.215-0.647-0.574c0-0.358,0.217-0.645,0.574-0.645c0.36,0,0.646,0.214,0.646,0.573l0,0
		C-344.282,114.633-344.571,114.848-344.926,114.848L-344.926,114.848"/>
	<path fill="#485756" d="M-336.607,117.357c-0.287,0.143-0.645,0.216-1.004,0.216c-1.792,0-3.299-1.432-3.299-3.228
		c0-1.792,1.434-3.298,3.228-3.298c0.36,0,0.717,0.072,1.003,0.215l0.217,1.436c-0.935-0.646-2.152-0.431-2.799,0.498
		c-0.647,0.933-0.43,2.151,0.502,2.799c0.288,0.218,0.718,0.359,1.077,0.359c0.43,0,0.86-0.213,1.22-0.502"/>
	<path fill="#485756" d="M-335.1,112.765c0.43-0.07,0.86-0.141,1.362-0.141c0.86,0,1.721,0.358,1.721,1.288v3.444l-1.077,0.072
		v-0.289c-0.287,0.289-0.715,0.43-1.147,0.43c-0.861,0.072-1.651-0.571-1.721-1.432c-0.073-0.86,0.571-1.651,1.431-1.721
		c0.071,0,0.071,0,0.146,0c0.43,0,0.861,0.069,1.291,0.283c0-0.07,0-0.214,0-0.283c0-0.647-0.43-0.72-1.007-0.72
		c-0.43,0-0.86,0.072-1.291,0.288 M-334.026,116.639c0.43,0,0.86-0.214,0.86-0.645c0-0.43-0.429-0.645-0.86-0.645
		c-0.43,0-0.86,0.286-0.86,0.645C-334.887,116.354-334.384,116.639-334.026,116.639"/>
	<path fill="#485756" d="M-327.714,116.927c-0.359,0.43-0.86,0.646-1.433,0.646c-1.362-0.073-2.368-1.291-2.296-2.656
		c0.074-1.219,1.077-2.151,2.296-2.292c0.501,0,1.003,0.141,1.362,0.5v-2.008l1.147-0.143v6.38l-1.076,0.072 M-329.005,116.497
		c0.789,0.072,1.506-0.573,1.506-1.362c0.073-0.789-0.575-1.505-1.364-1.505c-0.787-0.071-1.504,0.573-1.504,1.359v0.074
		C-330.367,115.849-329.794,116.497-329.005,116.497L-329.005,116.497"/>
	<path fill="#485756" d="M-325.633,111.191l1.148-0.146v2.224l0,0c0.286-0.431,0.863-0.644,1.362-0.573
		c0.79-0.07,1.505,0.573,1.579,1.361c0,0.072,0,0.144,0,0.218v3.155l-1.078,0.07v-2.941c0-0.502-0.216-0.932-0.718-0.932
		c-0.572,0-1.074,0.43-1.074,1.007c0,0.07,0,0.07,0,0.143v2.653l-1.148,0.07"/>
	<path fill="#485756" d="M-318.39,112.695c1.363,0.07,2.438,1.221,2.367,2.583c-0.073,1.361-1.222,2.438-2.582,2.367
		c-1.292-0.072-2.366-1.151-2.366-2.438C-320.901,113.698-319.752,112.625-318.39,112.695 M-318.39,116.497
		c0.79,0,1.434-0.72,1.363-1.508c0-0.786-0.717-1.431-1.506-1.359c-0.789,0-1.364,0.645-1.364,1.434
		C-319.823,115.849-319.179,116.497-318.39,116.497L-318.39,116.497"/>
	<path fill="#485756" d="M-311.72,114.056c-0.286-0.213-0.646-0.283-1.004-0.358c-0.789-0.071-1.434,0.502-1.504,1.291
		c0,0.074,0,0.074,0,0.146c0,0.789,0.572,1.362,1.362,1.435c0.429,0,0.789-0.146,1.074-0.359l0.647,0.86
		c-0.502,0.427-1.077,0.643-1.721,0.572c-1.362,0-2.511-1.148-2.511-2.511l0,0c0-1.361,1.149-2.437,2.511-2.437l0,0
		c0.644,0,1.219,0.215,1.721,0.57"/>
	<path opacity="0.04" fill="#FFFFFF" enable-background="new    " d="M-309.783,100.935c0.646,0.643,1.077,1.575,1.077,2.507v21.516
		c0,0.936-0.359,1.866-1.077,2.51c-0.644,0.647-1.579,1.078-2.511,1.078h-35.861c-0.932,0-1.864-0.358-2.511-1.078L-309.783,100.935
		z"/>
</g>
<g id="Layer_3">
	<rect x="84.075" y="173.8" width="2.308" height="3.848"/>
	<circle cx="85.251" cy="171.901" r="1.312"/>
	<path d="M90.817,166.698h-8.372v12.671h8.372c1.81,0,3.258-0.498,4.299-1.357c1.267-1.086,1.9-2.715,1.9-4.979
		c0-0.996-0.136-1.945-0.498-2.851c-0.271-0.771-0.769-1.448-1.357-1.991C93.939,167.15,92.4,166.652,90.817,166.698z
		 M90.681,167.512c1.403-0.091,2.805,0.36,3.891,1.267c1.041,0.95,1.584,2.354,1.584,4.208c0,3.711-1.81,5.476-5.475,5.476h-7.376
		v-10.996L90.681,167.512z"/>
	<path fill="#CD0067" d="M90.41,177.693h-2.941v-9.141h2.851c2.444,0,5.068,0.951,5.068,4.57c0,3.801-2.625,4.569-5.068,4.569
		L90.41,177.693L90.41,177.693z"/>
	<path fill="#FFFFFF" d="M86.971,170.906h0.814c0.136,0,0.271,0,0.407,0.045c0.136,0.047,0.226,0.092,0.316,0.228
		c0.091,0.091,0.181,0.227,0.227,0.362c0.045,0.181,0.09,0.36,0.09,0.496c0,0.137,0,0.317-0.045,0.453
		c-0.045,0.137-0.136,0.271-0.226,0.407c-0.09,0.09-0.181,0.136-0.317,0.181c-0.136,0.045-0.271,0.045-0.407,0.045h-0.814
		L86.971,170.906z M87.423,171.268v1.446h0.317c0.09,0,0.181,0,0.271,0c0.045,0,0.136-0.045,0.181-0.09s0.09-0.136,0.136-0.227
		c0.045-0.136,0.045-0.271,0.045-0.406c0-0.137,0-0.271-0.045-0.408c-0.045-0.09-0.045-0.136-0.136-0.227
		c-0.045-0.045-0.136-0.09-0.227-0.09c-0.136,0-0.226,0-0.362,0L87.423,171.268L87.423,171.268z"/>
	<path fill="#FFFFFF" d="M86.925,170.861v2.309h0.905c0.136,0,0.271,0,0.407-0.047c0.136-0.045,0.227-0.09,0.317-0.181
		c0.136-0.136,0.181-0.271,0.271-0.407c0.045-0.136,0.09-0.315,0.09-0.498c0-0.181,0-0.361-0.09-0.543
		c-0.045-0.136-0.136-0.271-0.226-0.361c-0.091-0.09-0.227-0.182-0.362-0.227c-0.135-0.045-0.316-0.045-0.452-0.045H86.925z
		 M87.785,170.996c0.136,0,0.271,0,0.407,0.045c0.136,0.045,0.226,0.092,0.316,0.182c0.091,0.091,0.136,0.227,0.181,0.316
		c0.045,0.182,0.09,0.316,0.045,0.498c0,0.135,0,0.316-0.045,0.452s-0.136,0.271-0.226,0.361c-0.091,0.091-0.181,0.136-0.271,0.182
		c-0.136,0.046-0.227,0.046-0.362,0.046h-0.769v-2.082H87.785z"/>
	<path fill="#FFFFFF" d="M87.333,171.222v1.584h0.407c0.09,0,0.181,0,0.271,0c0.09,0,0.136-0.045,0.181-0.092
		c0.045-0.045,0.09-0.135,0.136-0.226c0.045-0.136,0.045-0.271,0.045-0.407c0-0.136,0-0.271-0.045-0.406
		c-0.045-0.092-0.091-0.182-0.136-0.228c-0.045-0.045-0.136-0.091-0.227-0.136c-0.136,0-0.271,0-0.362,0L87.333,171.222z
		 M87.604,171.358c0.136,0,0.226,0,0.362,0c0.045,0,0.136,0.046,0.181,0.091s0.09,0.137,0.09,0.182
		c0.045,0.136,0.045,0.227,0.045,0.361s0,0.271-0.045,0.407c0,0.091-0.045,0.136-0.09,0.181c-0.045,0.047-0.09,0.047-0.136,0.092
		c-0.09,0-0.181,0-0.271,0h-0.271v-1.357L87.604,171.358z"/>
	<path fill="#FFFFFF" d="M89.324,173.123v-2.218h1.629v0.362h-1.177v0.497h1.086v0.362h-1.086v0.588h1.222v0.361L89.324,173.123z"/>
	<path fill="#FFFFFF" d="M89.233,170.861v2.309h1.81v-0.498h-1.222v-0.452h1.086v-0.498h-1.086v-0.362h1.176v-0.497L89.233,170.861
		L89.233,170.861z M90.862,170.996v0.271h-1.176v0.588h1.086v0.271h-1.086v0.724h1.222v0.271h-1.539v-2.08L90.862,170.996z"/>
	<path fill="#FFFFFF" d="M93.486,173.123h-0.498l-0.181-0.498h-0.859l-0.181,0.498h-0.453l0.86-2.218h0.453L93.486,173.123z
		 M92.627,172.263l-0.317-0.814l-0.317,0.814H92.627z"/>
	<path fill="#FFFFFF" d="M92.084,170.861l-0.905,2.309h0.588l0.181-0.498h0.814l0.181,0.498h0.634l-0.905-2.309H92.084z
		 M92.536,170.996l0.814,2.082h-0.362l-0.181-0.498h-0.95l-0.181,0.498h-0.362l0.814-2.082H92.536z"/>
	<path fill="#FFFFFF" d="M91.948,172.308h0.769l-0.407-1.04L91.948,172.308z M92.355,171.583l0.226,0.588h-0.407L92.355,171.583z"/>
	<path fill="#FFFFFF" d="M93.849,173.123v-2.172h0.452v1.811h1.086v0.361H93.849z"/>
	<path fill="#FFFFFF" d="M93.758,170.861v2.309h1.674v-0.498h-1.086v-1.811H93.758z M94.21,170.996v1.811h1.086v0.271h-1.448v-2.082
		H94.21z"/>
</g>
<path fill="#F3F4F4" d="M139.008,179.91c0,1.268-0.994,2.264-2.262,2.264h-22.625c-1.268,0-2.264-0.996-2.264-2.264v-13.574
	c0-1.268,0.996-2.264,2.264-2.264h22.625c1.268,0,2.262,0.996,2.262,2.264V179.91z"/>
<g>
	<g>
		<g>
			<g>
				<circle fill="#EC1C24" cx="115.523" cy="173.168" r="1.493"/>
			</g>
		</g>
		<g>
			
				<radialGradient id="SVGID_1_" cx="1250.0205" cy="1041.7759" r="1.9706" gradientTransform="matrix(0.5139 0 0 0.5139 -527.66 -362.9417)" gradientUnits="userSpaceOnUse">
				<stop  offset="0.0254" style="stop-color:#FFFFFF"/>
				<stop  offset="0.1458" style="stop-color:#FBD2D4"/>
				<stop  offset="0.3104" style="stop-color:#F79B9F"/>
				<stop  offset="0.4712" style="stop-color:#F36E73"/>
				<stop  offset="0.624" style="stop-color:#F04A51"/>
				<stop  offset="0.767" style="stop-color:#EE3138"/>
				<stop  offset="0.8963" style="stop-color:#EC2129"/>
				<stop  offset="1" style="stop-color:#EC1C24"/>
			</radialGradient>
			<circle fill="url(#SVGID_1_)" cx="115.523" cy="173.168" r="1.493"/>
		</g>
		<g>
			
				<radialGradient id="SVGID_2_" cx="1255.1934" cy="1059.3169" r="5.6674" gradientTransform="matrix(0.5068 0 0 0.5068 -521.5017 -364.5393)" gradientUnits="userSpaceOnUse">
				<stop  offset="0.65" style="stop-color:#FBFBFB"/>
				<stop  offset="0.7173" style="stop-color:#F2F2F2"/>
				<stop  offset="0.829" style="stop-color:#D8D9DA"/>
				<stop  offset="0.9703" style="stop-color:#B0B1B4"/>
				<stop  offset="1" style="stop-color:#A6A8AB"/>
			</radialGradient>
			<circle fill="url(#SVGID_2_)" cx="115.523" cy="173.168" r="1.493"/>
		</g>
		<g>
			<g>
				<path fill="#FFFFFF" d="M115.434,172.761c0,0,0.18-0.227,0.18-0.271c0-0.046,0.046-0.046-0.045-0.091
					c-0.045-0.045-0.226-0.136-0.226-0.136c-0.045-0.045-0.045-0.092,0.046-0.137c0.09,0,0.904-0.09,1.221-0.045
					s0.271,0.137,0.271,0.182c0,0.091-0.136,0.181-0.316,0.316c0,0-0.271,0.271-0.498,0.452c-0.228,0.181-0.86,0.724-0.996,0.814
					c-0.137,0.09-0.635,0.452-0.68,0.497c-0.045,0.046-0.136,0.091-0.181,0.046c-0.045-0.046,0-0.091,0.045-0.136
					C114.348,174.208,115.342,172.806,115.434,172.761z"/>
			</g>
		</g>
		<g>
			<g>
				<path fill="#FFFFFF" d="M115.434,172.761c0,0,0.18-0.227,0.18-0.271c0-0.046,0.046-0.046-0.045-0.091
					c-0.045-0.045-0.226-0.136-0.226-0.136c-0.045-0.045-0.045-0.092,0.046-0.137c0.09,0,0.904-0.09,1.221-0.045
					s0.271,0.137,0.271,0.182c0,0.091-0.136,0.181-0.271,0.316c0,0-0.271,0.271-0.498,0.452c-0.225,0.181-0.858,0.724-0.994,0.814
					c-0.137,0.09-0.635,0.452-0.635,0.497c-0.045,0.046-0.135,0.091-0.181,0.046c-0.045-0.046,0-0.091,0.046-0.136
					C114.393,174.253,115.342,172.851,115.434,172.761z"/>
			</g>
		</g>
		<path fill="#4D4D4F" d="M115.389,172.399c0.045,0.045,0.18,0.136,0.225,0.136l0,0l0,0c0-0.045,0.046-0.045-0.045-0.091
			c-0.045-0.045-0.226-0.136-0.226-0.136l-0.045-0.045C115.389,172.308,115.389,172.354,115.389,172.399z"/>
		
			<linearGradient id="SVGID_3_" gradientUnits="userSpaceOnUse" x1="1414.0029" y1="1167.6636" x2="1420.4174" y2="1163.9602" gradientTransform="matrix(0.4525 0 0 0.4525 -525.6309 -354.1358)">
			<stop  offset="0.0356" style="stop-color:#48484A"/>
			<stop  offset="0.0814" style="stop-color:#898B8D"/>
			<stop  offset="0.145" style="stop-color:#48484A"/>
			<stop  offset="0.9135" style="stop-color:#48484A"/>
			<stop  offset="0.9695" style="stop-color:#898B8D"/>
			<stop  offset="0.9784" style="stop-color:#737577"/>
			<stop  offset="0.9921" style="stop-color:#58585A"/>
			<stop  offset="1" style="stop-color:#4D4D4F"/>
		</linearGradient>
		<path fill="url(#SVGID_3_)" d="M116.881,172.218c0,0.045,0.045,0.09,0,0.09c0,0.091-0.136,0.182-0.271,0.316
			c0,0-0.271,0.271-0.498,0.453c-0.225,0.18-0.858,0.723-0.994,0.813c-0.137,0.09-0.635,0.453-0.635,0.498
			c-0.045,0-0.135,0.045-0.181,0.045c0,0,0.046,0.046,0.091,0.091s0.137,0,0.182-0.045c0.045-0.046,0.543-0.407,0.634-0.498
			c0.136-0.091,0.769-0.634,0.996-0.814c0.226-0.182,0.498-0.453,0.498-0.453c0.181-0.135,0.271-0.226,0.271-0.315
			C116.971,172.354,116.971,172.263,116.881,172.218z"/>
		<path fill="#FFFFFF" d="M115.434,172.761c0,0,0.18-0.227,0.18-0.271c0-0.046,0.046-0.046-0.045-0.091
			c-0.045-0.045-0.226-0.136-0.226-0.136c-0.045-0.045-0.045-0.092,0.046-0.137c0.09,0,0.904-0.09,1.221-0.045
			s0.271,0.137,0.271,0.182c0,0.091-0.136,0.181-0.271,0.316c0,0-0.271,0.271-0.498,0.452c-0.225,0.181-0.858,0.724-0.994,0.814
			c-0.137,0.09-0.635,0.452-0.635,0.497c-0.045,0.046-0.135,0.091-0.181,0.046c-0.045-0.046,0-0.091,0.046-0.136
			C114.393,174.253,115.342,172.851,115.434,172.761z"/>
	</g>
	<g>
		<path fill="#231F20" d="M119.234,171.947v1.854c0,0.407-0.362,0.725-0.86,0.725s-0.86-0.317-0.86-0.725v-1.447
			c0-0.228,0.182-0.453,0.453-0.453h0.045v1.854c0,0.228,0.182,0.363,0.407,0.363c0.181,0,0.362-0.137,0.362-0.363v-1.447
			C118.781,172.126,118.962,171.947,119.234,171.947L119.234,171.947z"/>
		<path fill="#231F20" d="M120.139,172.625c0.635,0,0.725,0.361,0.725,0.588v1.357l0,0c-0.227,0-0.453-0.181-0.453-0.451v-0.906
			c0-0.135-0.045-0.271-0.317-0.271c-0.136,0-0.181,0-0.271,0.045c0,0.046,0,1.584,0,1.584h-0.452v-1.765
			C119.596,172.669,119.913,172.625,120.139,172.625z"/>
		<path fill="#231F20" d="M121.314,171.947c0.137,0,0.227,0.09,0.227,0.227c0,0.136-0.09,0.227-0.227,0.227
			c-0.135,0-0.271-0.091-0.271-0.227C121.044,172.037,121.18,171.947,121.314,171.947z M121.542,172.625v1.494
			c0,0.226-0.181,0.451-0.453,0.451l0,0v-1.945H121.542z"/>
		<path fill="#231F20" d="M122.854,171.901c0.228,0,0.408,0.046,0.588,0.136v0.453c-0.09-0.136-0.271-0.227-0.498-0.227
			c-0.452,0-0.77,0.451-0.77,0.949c0,0.453,0.317,0.951,0.77,0.951c0.182,0,0.363-0.045,0.498-0.182v0.452
			c-0.135,0.091-0.361,0.136-0.588,0.136c-0.724,0-1.131-0.679-1.131-1.313C121.723,172.58,122.084,171.901,122.854,171.901z"/>
		<path fill="#231F20" d="M124.211,172.625c0.09,0,0.182,0,0.271,0v0.361c-0.137-0.09-0.362-0.09-0.453-0.045v1.131
			c0,0.227-0.182,0.453-0.453,0.453h-0.045v-1.765C123.759,172.669,123.939,172.625,124.211,172.625z"/>
		<path fill="#231F20" d="M126.066,173.576l-1.131,0.135c0.045,0.316,0.181,0.453,0.498,0.453c0.316,0,0.498-0.092,0.588-0.182
			v0.361c-0.137,0.046-0.317,0.136-0.635,0.136c-0.543,0-0.904-0.36-0.904-0.995c0-0.588,0.315-0.949,0.813-0.949
			s0.769,0.315,0.769,0.904v0.137H126.066z M125.659,173.349c0-0.362-0.271-0.407-0.362-0.407l0,0c-0.271,0-0.361,0.181-0.361,0.543
			L125.659,173.349z"/>
		<path fill="#231F20" d="M127.695,171.947v2.534c-0.09,0.045-0.452,0.045-0.633,0.045h-0.045c-0.543,0-0.859-0.317-0.859-0.905
			s0.316-0.949,0.814-0.949c0.09,0,0.18,0,0.271,0.045V172.4C127.243,172.171,127.469,171.947,127.695,171.947L127.695,171.947z
			 M127.243,172.987c-0.045,0-0.091,0-0.136,0c-0.362,0-0.453,0.362-0.453,0.679c0,0.407,0.136,0.635,0.406,0.635
			c0.045,0,0.137,0,0.182,0L127.243,172.987L127.243,172.987z"/>
		<path fill="#231F20" d="M128.148,171.947c0.136,0,0.226,0.09,0.226,0.227c0,0.136-0.09,0.227-0.226,0.227
			c-0.137,0-0.271-0.091-0.271-0.227C127.877,172.037,128.012,171.947,128.148,171.947z M128.374,172.625v1.494
			c0,0.226-0.181,0.451-0.452,0.451l0,0v-1.945H128.374z"/>
		<path fill="#231F20" d="M129.189,171.947v0.68h0.271v0.36h-0.271v0.996c0,0.136,0.045,0.181,0.181,0.181
			c0.045,0,0.091,0,0.136-0.045v0.361c0,0-0.09,0.046-0.227,0.046c-0.316,0-0.497-0.182-0.497-0.453v-1.131h-0.271v-0.315h0.18
			v-0.228C128.736,172.171,128.917,171.947,129.189,171.947L129.189,171.947z"/>
		<path fill="#231F20" d="M131.542,173.123L131.542,173.123c0.226,0.045,0.588,0.271,0.588,0.633c0,0.498-0.407,0.726-0.996,0.726
			c-0.588,0-0.769,0-0.769,0v-2.444c0.181-0.09,0.453-0.136,0.769-0.136c0.634,0,0.951,0.271,0.951,0.679
			C132.04,172.942,131.768,173.078,131.542,173.123z M131.587,172.58c0-0.271-0.181-0.408-0.498-0.408c-0.136,0-0.228,0-0.317,0.047
			v0.813h0.137C131.406,173.078,131.587,172.897,131.587,172.58z M130.954,173.257h-0.136v0.951c0.09,0,0.181,0,0.315,0
			c0.317,0,0.543-0.137,0.543-0.453C131.677,173.44,131.451,173.257,130.954,173.257z"/>
		<path fill="#231F20" d="M133.262,173.304v-0.137c0-0.227-0.137-0.316-0.363-0.316c-0.181,0-0.361,0.091-0.543,0.182v-0.316
			c0.137-0.045,0.362-0.137,0.633-0.137c0.408,0,0.725,0.183,0.725,0.68v1.223c-0.136,0.045-0.406,0.045-0.588,0.045h-0.09
			c-0.498,0-0.77-0.227-0.77-0.589C132.221,173.485,132.718,173.394,133.262,173.304z M133.262,173.53
			c-0.408,0.046-0.634,0.136-0.634,0.453c0,0.226,0.136,0.361,0.407,0.361c0.09,0,0.227,0,0.271,0v-0.814H133.262z"/>
		<path fill="#231F20" d="M134.619,172.625c0.634,0,0.724,0.361,0.724,0.588v1.357l0,0c-0.226,0-0.452-0.181-0.452-0.451v-0.906
			c0-0.135-0.045-0.271-0.316-0.271c-0.137,0-0.182,0-0.272,0.045c0,0.046,0,1.584,0,1.584h-0.452v-1.765
			C134.076,172.669,134.393,172.625,134.619,172.625z"/>
		<path fill="#231F20" d="M136.021,174.073c0,0.228-0.182,0.453-0.453,0.453l0,0v-2.127c0-0.228,0.181-0.452,0.453-0.452l0,0v1.538
			l0.588-0.858h0.406l-0.588,0.858l0.68,0.996h-0.498l-0.635-0.951v0.543H136.021z"/>
	</g>
</g>
<path opacity="0.08" fill="#FFFFFF" enable-background="new    " d="M138.329,164.751c0.407,0.406,0.679,0.996,0.679,1.584v13.574
	c0,0.588-0.226,1.178-0.679,1.584c-0.407,0.407-0.995,0.68-1.583,0.68h-22.625c-0.588,0-1.178-0.228-1.584-0.68L138.329,164.751z"/>
<path fill="#F8F8F9" d="M136.746,164.526c0.996,0,1.811,0.813,1.811,1.81v13.576c0,0.994-0.814,1.81-1.811,1.81h-22.625
	c-0.996,0-1.811-0.814-1.811-1.81v-13.576c0-0.994,0.814-1.81,1.811-1.81H136.746 M136.746,164.073h-22.625
	c-1.268,0-2.264,0.996-2.264,2.263v13.576c0,1.267,0.996,2.262,2.264,2.262h22.625c1.268,0,2.262-0.995,2.262-2.262v-13.576
	C139.008,165.069,138.014,164.073,136.746,164.073z"/>
<g>
	<path fill="#5565AF" d="M-358.073,83.988c0,2.011-1.581,3.591-3.592,3.591h-35.913c-2.011,0-3.591-1.58-3.591-3.591V62.44
		c0-2.013,1.58-3.593,3.591-3.593h35.913c2.01,0,3.592,1.58,3.592,3.593V83.988z"/>
	<path opacity="0.04" fill="#FFFFFF" enable-background="new    " d="M-359.15,59.925c0.646,0.647,1.077,1.58,1.077,2.515v21.548
		c0,0.933-0.359,1.865-1.077,2.513c-0.646,0.646-1.581,1.078-2.515,1.078h-35.913c-0.933,0-1.867-0.359-2.514-1.078L-359.15,59.925z
		"/>
	<path fill="#31A7E2" d="M-379.62,68.473c-1.364-1.58-3.303-2.442-5.387-2.442c-3.95,0-7.183,3.231-7.183,7.184
		c0,3.949,3.232,7.181,7.183,7.181c2.083,0,4.023-0.86,5.387-2.442C-381.991,75.224-381.991,71.202-379.62,68.473z"/>
	<path fill="#31A7E2" d="M-379.62,68.473c-2.371,2.729-2.371,6.751,0,9.479c1.148-1.293,1.796-3.016,1.796-4.738
		C-377.825,71.489-378.472,69.766-379.62,68.473z"/>
	<path fill="#EA564B" d="M-374.305,66.033c-2.083,0-4.022,0.86-5.388,2.44c-0.288,0.359-0.575,0.718-0.791,1.15h1.652
		c0.287,0.43,0.503,0.934,0.646,1.437h-2.873c-0.144,0.431-0.287,0.933-0.287,1.438h3.519c0,0.214,0.071,0.502,0.071,0.719
		c0,0.214,0,0.504-0.071,0.718h-3.519c0.071,0.501,0.144,0.933,0.287,1.436h2.945c-0.144,0.503-0.36,1.005-0.647,1.437h-1.651
		c0.214,0.433,0.504,0.792,0.79,1.148c1.365,1.582,3.304,2.444,5.387,2.444c3.951,0,7.183-3.233,7.183-7.183
		C-367.051,69.191-370.282,66.033-374.305,66.033z"/>
	<path fill="#7684B7" d="M-361.664,59.565c1.58,0,2.873,1.293,2.873,2.875v21.548c0,1.58-1.292,2.873-2.873,2.873h-35.913
		c-1.58,0-2.873-1.293-2.873-2.873V62.44c0-1.582,1.292-2.875,2.873-2.875H-361.664 M-361.664,58.847h-35.913
		c-2.011,0-3.591,1.58-3.591,3.593v21.548c0,2.011,1.58,3.591,3.591,3.591h35.913c2.01,0,3.592-1.58,3.592-3.591V62.44
		C-358.073,60.427-359.653,58.847-361.664,58.847z"/>
</g>
<g>
	<path fill="#4B8BBF" d="M-311.754,9.679c0,1.979-1.555,3.532-3.531,3.532h-35.307c-1.977,0-3.531-1.554-3.531-3.532v-21.184
		c0-1.979,1.555-3.529,3.531-3.529h35.307c1.977,0,3.531,1.551,3.531,3.529V9.679z"/>
	<path fill="#1460A7" d="M-315.285-14.26c1.553,0,2.824,1.271,2.824,2.826V9.752c0,1.552-1.271,2.823-2.824,2.823h-35.307
		c-1.553,0-2.825-1.271-2.825-2.823v-21.187c0-1.555,1.271-2.826,2.825-2.826H-315.285"/>
	<path fill="#FFFFFF" d="M-335.623,0.005l-1.765,4.803l-0.141-0.99c-0.423-1.271-1.343-2.33-2.542-2.967l1.623,6.146h1.908
		l2.896-7.063L-335.623,0.005z"/>
	<polygon fill="#FFFFFF" points="-334.068,6.998 -332.938,0.005 -331.102,0.005 -332.233,6.998 	"/>
	<path fill="#FFFFFF" d="M-325.665,0.148c-0.496-0.213-1.061-0.283-1.625-0.283c-1.766,0-3.038,0.986-3.038,2.331
		c0,0.988,0.919,1.552,1.553,1.905c0.708,0.354,0.92,0.564,0.92,0.848c0,0.494-0.566,0.707-1.06,0.707
		c-0.563,0-1.2-0.143-1.695-0.354l-0.211-0.14l-0.282,1.551c0.634,0.285,1.341,0.354,2.047,0.354c1.906,0,3.176-0.917,3.176-2.401
		c0-0.775-0.493-1.412-1.553-1.905c-0.635-0.354-1.059-0.564-1.059-0.848c0-0.284,0.354-0.637,1.059-0.637
		c0.496,0,0.919,0.073,1.343,0.283l0.14,0.069L-325.665,0.148L-325.665,0.148z"/>
	<path fill="#FFFFFF" d="M-321.004,0.005h-1.413c-0.423-0.07-0.777,0.213-0.919,0.566l-2.682,6.426h1.907l0.352-1.062h2.332
		c0.07,0.283,0.209,1.062,0.209,1.062h1.696L-321.004,0.005L-321.004,0.005z M-323.265,4.525l0.705-1.978
		c0,0,0.143-0.425,0.213-0.704l0.141,0.633l0.424,2.049H-323.265z"/>
	<path fill="#FF9E16" d="M-339.013,0.005h-2.895v0.143c1.979,0.424,3.673,1.834,4.378,3.67l-0.635-3.246
		C-338.234,0.218-338.588-0.065-339.013,0.005L-339.013,0.005z"/>
	<polygon fill="#FFFFFF" points="-347.486,-1.69 -348.616,-1.69 -349.957,-7.762 -348.686,-7.975 -347.768,-3.241 -345.437,-7.902 
		-344.238,-7.902 	"/>
	<path fill="#FFFFFF" d="M-341.414-3.665h-2.752c-0.072,0.846,0.281,1.197,0.987,1.197c0.566,0,1.131-0.211,1.556-0.563v0.847
		c-0.566,0.354-1.131,0.494-1.767,0.568c-1.2,0-1.976-0.708-1.766-2.263c0.072-1.201,1.061-2.188,2.331-2.259
		c1.271,0,1.695,0.988,1.553,2.188C-341.342-3.878-341.414-3.739-341.414-3.665L-341.414-3.665z M-343.036-5.432
		c-0.425,0-0.849,0.353-0.99,1.061h1.695C-342.331-5.009-342.542-5.432-343.036-5.432L-343.036-5.432z"/>
	<path fill="#FFFFFF" d="M-339.647-4.232L-340-1.759h-1.059l0.635-4.308h0.919v0.848c0.353-0.564,0.917-0.918,1.553-0.988v1.059
		C-338.657-5.009-339.224-4.725-339.647-4.232L-339.647-4.232z"/>
	<path fill="#FFFFFF" d="M-337.953-1.759l0.636-4.308h1.059l-0.635,4.308H-337.953z M-336.682-6.774
		c-0.282,0-0.495-0.141-0.565-0.424c0-0.07,0-0.07,0-0.14c0.07-0.354,0.354-0.638,0.707-0.638c0.282,0,0.494,0.213,0.563,0.498
		c0,0.07,0,0.07,0,0.14C-336.046-7.054-336.33-6.774-336.682-6.774L-336.682-6.774z"/>
	<path fill="#FFFFFF" d="M-333.292-7.268c-0.352-0.069-0.635,0.214-0.635,0.494l0,0l-0.07,0.707h0.847v0.848h-0.989l-0.565,3.46
		h-1.057l0.563-3.46h-0.635l0.141-0.848h0.634l0.143-0.707c0.07-0.848,0.847-1.411,1.623-1.342c0,0,0,0,0.072,0
		c0.14,0,0.282,0,0.423,0v0.848C-333.01-7.198-333.151-7.198-333.292-7.268L-333.292-7.268z"/>
	<path fill="#FFFFFF" d="M-333.292-1.759l0.635-4.308h1.059l-0.635,4.308H-333.292z M-331.95-6.774
		c-0.283,0-0.495-0.141-0.565-0.424c0-0.07,0-0.07,0-0.14c0.07-0.354,0.352-0.638,0.705-0.638c0.285,0,0.494,0.213,0.565,0.498
		c0,0.07,0,0.07,0,0.14C-331.316-7.054-331.598-6.774-331.95-6.774L-331.95-6.774z"/>
	<path fill="#FFFFFF" d="M-327.36-3.665h-2.754c-0.071,0.846,0.283,1.197,0.988,1.197c0.566,0,1.129-0.211,1.553-0.563v0.847
		c-0.564,0.354-1.129,0.494-1.765,0.568c-1.201,0-1.979-0.708-1.765-2.263c0.07-1.201,1.058-2.188,2.328-2.259
		c1.271,0,1.695,0.988,1.556,2.188C-327.36-3.878-327.36-3.739-327.36-3.665L-327.36-3.665z M-328.984-5.432
		c-0.423,0-0.847,0.353-0.989,1.061h1.695C-328.351-5.009-328.491-5.432-328.984-5.432L-328.984-5.432z"/>
	<path fill="#FFFFFF" d="M-324.184-1.759v-0.635c-0.353,0.423-0.847,0.704-1.411,0.704c-0.917,0-1.484-0.704-1.271-2.119
		c0.211-1.623,1.271-2.328,2.259-2.328c0.354,0,0.637,0.07,0.989,0.141l0.354-2.049l1.059-0.14l-0.989,6.426H-324.184z
		 M-323.83-5.08c-0.282-0.14-0.494-0.21-0.778-0.21c-0.563,0-1.057,0.424-1.2,1.411c-0.141,0.848,0.143,1.2,0.637,1.2
		c0.423-0.069,0.848-0.282,1.059-0.563L-323.83-5.08L-323.83-5.08z"/>
	<path fill="#FFFFFF" d="M-320.017-1.69c-0.424,0-0.918-0.069-1.271-0.211l0.707-4.59l0.848-0.14l-0.283,1.976
		c0.283-0.281,0.637-0.425,0.989-0.425c0.706,0,1.129,0.495,0.989,1.625C-318.18-2.467-319.028-1.69-320.017-1.69L-320.017-1.69z
		 M-319.38-4.372c-0.284,0-0.567,0.209-0.778,0.423l-0.213,1.481c0.143,0.073,0.354,0.073,0.495,0.073
		c0.496,0,0.848-0.284,0.989-1.061C-318.816-4.088-319.028-4.372-319.38-4.372L-319.38-4.372z"/>
	<path fill="#FFFFFF" d="M-316.204-1.546c-0.424,0.776-0.847,1.057-1.481,1.057c-0.071,0-0.213,0-0.284,0v-0.703
		c0.14,0,0.284,0.069,0.354,0.069c0.21,0,0.494-0.143,0.564-0.354l0.141-0.213l-0.706-3.246l0.847-0.073l0.424,2.331l1.059-2.258
		h0.847L-316.204-1.546L-316.204-1.546z"/>
	<path opacity="0.04" fill="#FFFFFF" enable-background="new    " d="M-312.884-14.117c0.636,0.634,1.06,1.552,1.06,2.472V9.539
		c0,0.918-0.354,1.836-1.06,2.472c-0.636,0.635-1.554,1.058-2.473,1.058h-35.307c-0.917,0-1.834-0.35-2.472-1.058L-312.884-14.117z"
		/>
</g>
<g>
	<path fill="#EAEAEA" d="M-361.098,9.783c0,1.979-1.554,3.529-3.531,3.529h-35.308c-1.978,0-3.53-1.551-3.53-3.529v-21.184
		c0-1.979,1.553-3.533,3.53-3.533h35.308c1.978,0,3.531,1.555,3.531,3.533V9.783z"/>
	<path fill="#FFFFFF" d="M-364.629-14.226c1.555,0,2.825,1.271,2.825,2.825V9.783c0,1.555-1.271,2.824-2.825,2.824h-35.308
		c-1.554,0-2.823-1.27-2.823-2.824v-21.184c0-1.555,1.27-2.825,2.823-2.825H-364.629"/>
	<g>
		<g>
			<g>
				<path fill="#ED1C24" d="M-366.959-2.081c0-0.354,0.282-0.707,0.636-0.707c0.353,0,0.636,0.284,0.636,0.707
					c0,0.354-0.283,0.709-0.636,0.709C-366.677-1.372-366.959-1.727-366.959-2.081L-366.959-2.081z M-366.324-1.585
					c0.282,0,0.494-0.212,0.494-0.495s-0.212-0.494-0.494-0.494s-0.494,0.211-0.494,0.494S-366.606-1.585-366.324-1.585
					L-366.324-1.585z M-366.393-1.797h-0.142v-0.566h0.211c0.07,0,0.07,0,0.142,0c0.07,0,0.07,0.07,0.07,0.144
					c0,0.07-0.07,0.14-0.07,0.14l0.07,0.283h-0.142l-0.07-0.213h-0.069V-1.797L-366.393-1.797z M-366.393-2.15h0.069h0.07v-0.07
					v-0.073h-0.07h-0.069V-2.15L-366.393-2.15z"/>
			</g>
			<path fill="#ED1C24" d="M-376.209-6.6l-0.142,1.131c-0.353-0.213-0.637-0.283-0.988-0.283c-0.776,0-1.342,0.847-1.342,1.978
				c0,0.778,0.353,1.271,0.989,1.271c0.281,0,0.563-0.071,0.917-0.284l-0.213,1.202c-0.423,0.14-0.635,0.14-0.916,0.14
				c-1.13,0-1.908-0.848-1.908-2.259c0-1.909,0.99-3.179,2.401-3.179c0.213,0,0.354,0,0.495,0.072l0.424,0.141
				C-376.281-6.6-376.281-6.6-376.209-6.6L-376.209-6.6z"/>
			<path fill="#ED1C24" d="M-379.74-5.823c0,0-0.072,0-0.142,0c-0.354,0-0.565,0.209-0.918,0.707l0.07-0.637h-0.989l-0.635,4.307
				h1.058c0.354-2.612,0.496-3.105,0.99-3.105c0,0,0,0,0.069,0C-380.024-5.045-379.881-5.399-379.74-5.823L-379.74-5.823
				L-379.74-5.823z"/>
			<path fill="#ED1C24" d="M-386.237-1.516c-0.283,0.07-0.493,0.145-0.777,0.145c-0.564,0-0.847-0.355-0.847-0.922
				c0-0.141,0-0.281,0-0.351l0.07-0.423l0.07-0.354l0.494-2.966h1.06l-0.141,0.635h0.563l-0.14,1.06h-0.565l-0.281,1.766
				c0,0.071,0,0.14,0,0.21c0,0.214,0.141,0.354,0.352,0.354c0.142,0,0.212,0,0.282-0.07L-386.237-1.516L-386.237-1.516z"/>
			<path fill="#ED1C24" d="M-390.474-4.411c0,0.565,0.283,0.916,0.848,1.199c0.423,0.215,0.494,0.284,0.494,0.494
				c0,0.283-0.212,0.424-0.636,0.424c-0.354,0-0.635-0.07-0.988-0.141l-0.142,0.918h0.07l0.213,0.07c0.069,0,0.141,0,0.281,0.074
				c0.282,0,0.424,0.068,0.565,0.068c1.129,0,1.624-0.424,1.624-1.414c0-0.564-0.212-0.918-0.776-1.201
				c-0.424-0.21-0.495-0.28-0.495-0.492c0-0.211,0.212-0.354,0.495-0.354c0.211,0,0.493,0,0.776,0.072l0.141-0.989
				c-0.281-0.07-0.706-0.07-0.917-0.07C-390.051-5.823-390.474-5.189-390.474-4.411L-390.474-4.411z"/>
			<path fill="#ED1C24" d="M-367.594-1.446h-0.989l0.071-0.424c-0.284,0.354-0.637,0.498-0.988,0.498
				c-0.778,0-1.272-0.709-1.272-1.77c0-1.41,0.777-2.611,1.766-2.611c0.424,0,0.707,0.213,1.059,0.563l0.213-1.481h1.059
				L-367.594-1.446L-367.594-1.446z M-369.219-2.503c0.495,0,0.847-0.563,0.847-1.484c0-0.563-0.211-0.849-0.563-0.849
				c-0.494,0-0.848,0.568-0.848,1.415C-369.784-2.788-369.572-2.503-369.219-2.503L-369.219-2.503z"/>
			<path fill="#ED1C24" d="M-382.778-1.516c-0.352,0.145-0.706,0.145-1.129,0.145c-1.2,0-1.837-0.639-1.837-1.91
				c0-1.483,0.777-2.541,1.907-2.541c0.918,0,1.483,0.634,1.483,1.555c0,0.28-0.07,0.633-0.142,1.057h-2.118c0,0.07,0,0.07,0,0.145
				c0,0.492,0.353,0.773,0.917,0.773c0.354,0,0.707-0.07,1.131-0.281L-382.778-1.516L-382.778-1.516z M-383.413-4.128
				c0-0.07,0-0.14,0-0.213c0-0.352-0.212-0.564-0.494-0.564c-0.354,0-0.564,0.284-0.706,0.777H-383.413L-383.413-4.128z"/>
			<polygon fill="#ED1C24" points="-394.782,-1.446 -395.841,-1.446 -395.276,-5.54 -396.618,-1.446 -397.324,-1.446 
				-397.465,-5.469 -398.101,-1.446 -399.088,-1.446 -398.242,-6.741 -396.687,-6.741 -396.687,-3.495 -395.629,-6.741 
				-393.934,-6.741 			"/>
			<path fill="#ED1C24" d="M-392.028-3.352c-0.141,0-0.141,0-0.212,0c-0.636,0-0.918,0.211-0.918,0.635
				c0,0.283,0.142,0.424,0.353,0.424C-392.38-2.293-392.028-2.717-392.028-3.352L-392.028-3.352z M-391.25-1.446h-0.919V-1.87
				c-0.283,0.354-0.637,0.498-1.13,0.498c-0.564,0-0.989-0.498-0.989-1.203c0-1.061,0.706-1.693,1.907-1.693
				c0.141,0,0.282,0,0.424,0c0-0.143,0.069-0.213,0.069-0.283c0-0.285-0.211-0.425-0.705-0.425c-0.283,0-0.636,0.07-0.918,0.14
				l-0.142,0.071h-0.07l0.141-0.987c0.565-0.141,0.918-0.21,1.271-0.21c0.918,0,1.413,0.423,1.413,1.27c0,0.212,0,0.352-0.07,0.848
				l-0.212,1.552l-0.069,0.283v0.213v0.142V-1.446L-391.25-1.446z"/>
			<path fill="#ED1C24" d="M-374.303-3.352c-0.142,0-0.142,0-0.211,0c-0.636,0-0.919,0.211-0.919,0.635
				c0,0.283,0.142,0.424,0.424,0.424C-374.657-2.293-374.374-2.717-374.303-3.352L-374.303-3.352z M-373.527-1.446h-0.918V-1.87
				c-0.282,0.354-0.636,0.498-1.13,0.498c-0.564,0-0.988-0.498-0.988-1.203c0-1.061,0.706-1.693,1.906-1.693
				c0.143,0,0.283,0,0.423,0c0-0.143,0.071-0.213,0.071-0.283c0-0.285-0.211-0.425-0.706-0.425c-0.281,0-0.636,0.07-0.917,0.14
				l-0.142,0.071h-0.071l0.142-0.987c0.565-0.141,0.918-0.21,1.271-0.21c0.918,0,1.412,0.423,1.412,1.27c0,0.212,0,0.352-0.07,0.848
				l-0.212,1.552v0.283v0.213v0.142L-373.527-1.446L-373.527-1.446z"/>
			<path fill="#ED1C24" d="M-370.561-5.823c0,0-0.07,0-0.14,0c-0.354,0-0.566,0.209-0.919,0.707l0.07-0.637h-0.988l-0.636,4.307
				h1.06c0.353-2.612,0.494-3.105,0.988-3.105c0,0,0,0,0.071,0C-370.843-5.045-370.701-5.399-370.561-5.823L-370.561-5.823
				L-370.561-5.823z"/>
		</g>
		<g>
			<path fill="#F8951D" d="M-375.081,2.72c0,0.99-0.281,1.555-0.776,1.555c-0.353,0-0.564-0.354-0.564-0.987
				c0-0.708,0.282-1.484,0.775-1.484C-375.221,1.873-375.081,2.296-375.081,2.72L-375.081,2.72z M-374.02,2.72
				c0-1.058-0.565-1.905-1.555-1.905c-1.129,0-1.906,1.058-1.906,2.542c0,1.059,0.424,1.976,1.554,1.976
				C-374.798,5.333-374.02,4.558-374.02,2.72L-374.02,2.72z"/>
			<path fill="#F8951D" d="M-377.128,0.039l-0.141,1.131c-0.354-0.215-0.635-0.284-0.918-0.284c-0.777,0-1.271,0.847-1.271,1.979
				c0,0.773,0.353,1.271,0.917,1.271c0.283,0,0.494-0.073,0.849-0.284l-0.143,1.201c-0.353,0.141-0.636,0.141-0.917,0.141
				c-1.061,0-1.766-0.848-1.766-2.258c0-1.909,0.918-3.251,2.26-3.251c0.142,0,0.354,0,0.423,0.071l0.424,0.143
				C-377.198-0.032-377.198-0.032-377.128,0.039L-377.128,0.039z"/>
			<path fill="#F8951D" d="M-383.765,0.815h-0.071c-0.354,0-0.495,0.211-0.848,0.704l0.071-0.634h-0.918l-0.636,4.308h0.988
				c0.354-2.613,0.423-3.106,0.918-3.106c0,0,0,0,0.07,0C-384.048,1.592-383.907,1.169-383.765,0.815L-383.765,0.815L-383.765,0.815
				z"/>
			<path fill="#F8951D" d="M-370.631,5.122h-0.918l0.071-0.423c-0.283,0.354-0.565,0.494-0.919,0.494
				c-0.706,0-1.199-0.708-1.199-1.766c0-1.411,0.775-2.612,1.623-2.612c0.424,0,0.706,0.211,0.989,0.565l0.211-1.482h0.989
				L-370.631,5.122L-370.631,5.122z M-372.114,4.135c0.494,0,0.775-0.567,0.775-1.484c0-0.564-0.211-0.848-0.563-0.848
				c-0.424,0-0.778,0.563-0.778,1.411C-372.609,3.851-372.467,4.135-372.114,4.135L-372.114,4.135z"/>
			<path fill="#F8951D" d="M-393.228,5.122c-0.354,0.14-0.706,0.14-1.06,0.14c-1.13,0-1.694-0.633-1.694-1.904
				c0-1.484,0.777-2.542,1.765-2.542c0.848,0,1.342,0.634,1.342,1.552c0,0.284-0.07,0.637-0.141,1.061h-1.978c0,0.07,0,0.07,0,0.141
				c0,0.494,0.283,0.777,0.919,0.777c0.353,0,0.705-0.07,1.059-0.283L-393.228,5.122L-393.228,5.122z M-393.793,2.58
				c0-0.07,0-0.14,0-0.213c0-0.351-0.211-0.563-0.494-0.563c-0.354,0-0.565,0.283-0.635,0.776H-393.793L-393.793,2.58z"/>
			<path fill="#F8951D" d="M-381.223,5.122c-0.354,0.14-0.707,0.14-1.059,0.14c-1.131,0-1.695-0.633-1.695-1.904
				c0-1.484,0.775-2.542,1.765-2.542c0.848,0,1.342,0.634,1.342,1.552c0,0.284-0.07,0.637-0.141,1.061h-1.978c0,0.07,0,0.07,0,0.141
				c0,0.494,0.282,0.777,0.918,0.777c0.353,0,0.706-0.07,1.06-0.283L-381.223,5.122L-381.223,5.122z M-381.789,2.58
				c0-0.07,0-0.14,0-0.213c0-0.351-0.212-0.563-0.493-0.563c-0.354,0-0.566,0.283-0.637,0.776H-381.789L-381.789,2.58z"/>
			<path fill="#F8951D" d="M-367.171,5.122c-0.354,0.14-0.706,0.14-1.059,0.14c-1.13,0-1.695-0.633-1.695-1.904
				c0-1.484,0.776-2.542,1.766-2.542c0.847,0,1.342,0.634,1.342,1.552c0,0.284,0,0.637-0.142,1.061h-1.977c0,0.07,0,0.07,0,0.141
				c0,0.494,0.282,0.777,0.918,0.777c0.353,0,0.705-0.07,1.059-0.283L-367.171,5.122L-367.171,5.122z M-367.736,2.58
				c0-0.07,0-0.14,0-0.213c0-0.351-0.142-0.563-0.494-0.563c-0.354,0-0.566,0.283-0.636,0.776H-367.736L-367.736,2.58z"/>
			<path fill="#F8951D" d="M-396.194,1.026c-0.211-0.141-0.493-0.211-0.849-0.211c-0.423,0-0.705,0.07-0.705,0.495
				c0,0.776,1.483,0.493,1.483,2.117c0,1.481-0.989,1.908-1.837,1.908c-0.424,0-0.848-0.143-1.2-0.283l0.213-1.131
				c0.212,0.214,0.635,0.284,0.918,0.284c0.281,0,0.847-0.07,0.847-0.638c0-0.848-1.482-0.564-1.482-2.049
				c0-1.41,0.848-1.835,1.694-1.835c0.494,0,0.918,0.071,1.2,0.214L-396.194,1.026L-396.194,1.026z"/>
			<path fill="#F8951D" d="M-390.262,5.122c-0.212,0.071-0.494,0.14-0.918,0.14c-0.848,0-1.412-0.846-1.412-1.974
				c0-1.415,0.775-2.542,1.978-2.542c0.281,0,0.635,0.14,0.918,0.28l-0.213,1.061c-0.212-0.144-0.424-0.214-0.705-0.214
				c-0.565,0-0.919,0.494-0.919,1.342c0,0.496,0.284,0.921,0.706,0.921c0.282,0,0.425-0.073,0.706-0.214L-390.262,5.122
				L-390.262,5.122z"/>
			<path fill="#F8951D" d="M-386.52,3.991c-0.069,0.354-0.069,0.708-0.141,1.131h-0.988l0.07-0.706l0,0
				c-0.282,0.493-0.636,0.777-1.2,0.777c-0.637,0-0.918-0.635-0.918-1.482c0-0.283,0-0.423,0.07-0.919l0.282-1.977h1.06
				l-0.283,1.977c0,0.212-0.071,0.423-0.071,0.636c0,0.283,0.142,0.494,0.425,0.494c0.424,0,0.706-0.564,0.777-1.201l0.282-1.975
				h1.059L-386.52,3.991L-386.52,3.991z"/>
			<g>
				<polygon fill="#F8951D" points="-366.182,5.122 -366.324,5.122 -366.324,4.345 -366.606,4.345 -366.606,4.206 -365.971,4.206 
					-365.971,4.345 -366.182,4.345 				"/>
				<polygon fill="#F8951D" points="-365.124,5.122 -365.264,5.122 -365.264,4.345 -365.264,4.345 -365.406,5.122 -365.548,5.122 
					-365.688,4.345 -365.688,4.345 -365.688,5.122 -365.9,5.122 -365.9,4.206 -365.619,4.206 -365.477,4.909 -365.477,4.909 
					-365.334,4.206 -365.124,4.206 				"/>
			</g>
		</g>
	</g>
	<path opacity="0.1" fill="#FFFFFF" enable-background="new    " d="M-362.44-13.803c0.636,0.635,1.06,1.555,1.06,2.473V9.853
		c0,0.918-0.354,1.838-1.06,2.471c-0.635,0.638-1.554,1.062-2.472,1.062h-35.308c-0.918,0-1.836-0.354-2.471-1.062L-362.44-13.803z"
		/>
</g>
<g>
	<path fill="#FFFFFF" d="M-358.64,124.96c0,2.011-1.579,3.588-3.588,3.588h-35.862c-2.007,0-3.584-1.577-3.584-3.588v-21.515
		c0-2.011,1.577-3.589,3.584-3.589h35.862c2.009,0,3.588,1.578,3.588,3.589V124.96z"/>
	<path fill="#F7F7F7" d="M-362.228,100.575c1.579,0,2.869,1.293,2.869,2.871v21.515c0,1.578-1.291,2.871-2.869,2.871h-35.862
		c-1.577,0-2.868-1.293-2.868-2.871v-21.515c0-1.578,1.291-2.871,2.868-2.871H-362.228"/>
	<line fill="none" x1="-365.241" y1="105.955" x2="-392.924" y2="105.955"/>
	<g id="XMLID_2_">
		<path id="XMLID_3_" fill="#FFFFFF" d="M-388.549,102.154c-0.862,0-1.507,0.643-1.507,1.505v21.229
			c0,0.861,0.719,1.509,1.507,1.509h19.149c0.861,0,1.506-0.647,1.506-1.509v-21.229c0-0.862-0.645-1.505-1.506-1.505H-388.549z"/>
		<path id="XMLID_4_" fill="#0023A0" d="M-388.549,102.154c-0.862,0-1.507,0.643-1.507,1.505v21.229
			c0,0.861,0.646,1.509,1.507,1.509h19.149c0.861,0,1.506-0.647,1.506-1.509h-0.071c0,0.79-0.647,1.435-1.435,1.435h-19.149
			c-0.789,0-1.436-0.645-1.436-1.435v-21.229c0-0.79,0.647-1.433,1.436-1.433h19.149c0.788,0,1.435,0.643,1.435,1.433v21.229h0.071
			v-21.229c0-0.862-0.645-1.505-1.506-1.505H-388.549z"/>
		<path id="XMLID_5_" fill="#0023A0" d="M-367.894,117.645v7.243c0,0.79-0.645,1.435-1.432,1.435h-19.151
			c-0.79,0-1.436-0.645-1.436-1.435v-7.243H-367.894"/>
		<path id="XMLID_11_" fill="#FFFFFF" d="M-374.492,122.379v2.079h-0.717v-2.079l-1.866-3.084l0.717-0.143l1.508,2.581l1.503-2.509
			h0.79L-374.492,122.379L-374.492,122.379z M-379.082,120.013l-0.86,2.224h1.721L-379.082,120.013L-379.082,120.013z
			 M-377.361,124.53l-0.646-1.648h-2.223l-0.572,1.577h-0.718l2.081-5.306h0.717l2.079,5.234L-377.361,124.53L-377.361,124.53z
			 M-383.242,119.867h-0.646v1.867h0.574c0.717,0,1.147-0.287,1.147-0.935C-382.167,120.156-382.524,119.867-383.242,119.867
			 M-383.313,122.379h-0.574v2.15h-0.716v-5.305h1.432c1.149,0,1.794,0.572,1.794,1.502
			C-381.449,121.806-382.167,122.379-383.313,122.379"/>
		<path id="XMLID_12_" fill="#0023A0" d="M-376.141,104.234l-2.87,7.746l-0.288-1.58c-0.717-1.934-2.079-3.872-3.874-4.66
			l2.44,9.825h3.083l4.591-11.331H-376.141"/>
		<path id="XMLID_13_" fill="#FFA000" d="M-381.521,104.234h-4.591l-0.071,0.285c3.659,0.933,5.881,3.158,6.885,5.881l-0.932-5.233
			C-380.373,104.449-380.876,104.234-381.521,104.234"/>
	</g>
	<path opacity="0.04" fill="#FFFFFF" enable-background="new    " d="M-360.004,100.935c0.646,0.643,1.076,1.578,1.076,2.511v21.515
		c0,0.933-0.359,1.866-1.076,2.51c-0.645,0.647-1.577,1.078-2.511,1.078h-35.861c-0.932,0-1.866-0.358-2.509-1.078L-360.004,100.935
		z"/>
</g>
<g>
	<path fill="#F3F4F4" d="M-408.479,49.416c0,2.007-1.576,3.582-3.583,3.582h-35.822c-2.007,0-3.584-1.575-3.584-3.582V27.923
		c0-2.008,1.577-3.584,3.584-3.584h35.822c2.007,0,3.583,1.576,3.583,3.584V49.416z"/>
	<path fill="#5565AF" d="M-439.287,45.835h-5.73V35.087c0-2.005,2.292-3.582,4.298-3.582h4.298v10.747
		C-436.42,44.258-437.351,45.835-439.287,45.835z"/>
	<path fill="#EA564B" d="M-429.255,45.835h-5.733V35.087c0-2.005,2.293-3.582,4.298-3.582h4.301v10.747
		C-426.392,44.258-427.322,45.835-429.255,45.835z"/>
	<path fill="#99CD76" d="M-419.227,45.835h-5.73V35.087c0-2.005,2.292-3.582,4.299-3.582h4.298v10.747
		C-416.36,44.258-417.291,45.835-419.227,45.835z"/>
	<path opacity="0.08" fill="#FFFFFF" enable-background="new    " d="M-409.554,25.416c0.643,0.644,1.075,1.575,1.075,2.508v21.492
		c0,0.931-0.36,1.862-1.075,2.509c-0.646,0.643-1.577,1.073-2.508,1.073h-35.822c-0.931,0-1.861-0.359-2.508-1.073L-409.554,25.416z
		"/>
	<path fill="#F8F8F9" d="M-412.062,25.058c1.577,0,2.867,1.288,2.867,2.865v21.492c0,1.577-1.29,2.868-2.867,2.868h-35.822
		c-1.577,0-2.867-1.287-2.867-2.868V27.923c0-1.577,1.288-2.865,2.867-2.865H-412.062 M-412.062,24.339h-35.822
		c-2.007,0-3.584,1.576-3.584,3.584v21.492c0,2.007,1.577,3.582,3.584,3.582h35.822c2.007,0,3.583-1.575,3.583-3.582V27.923
		C-408.479,25.917-410.055,24.339-412.062,24.339z"/>
</g>
<g>
	<path fill="#FFFFFF" stroke="#000000" stroke-width="0.1" stroke-miterlimit="10" d="M-304.591,49.918
		c0,2.002-1.571,3.574-3.57,3.574h-35.715c-1.999,0-3.569-1.572-3.569-3.574V28.494c0-2.002,1.57-3.572,3.569-3.572h35.715
		c1.999,0,3.57,1.57,3.57,3.572V49.918z"/>
	<path opacity="0.04" fill="#FFFFFF" enable-background="new    " d="M-306.089,25.993c0.641,0.642,1.071,1.568,1.071,2.497v21.428
		c0,0.931-0.359,1.858-1.071,2.501c-0.644,0.644-1.573,1.071-2.501,1.071h-35.714c-0.928,0-1.856-0.357-2.498-1.071L-306.089,25.993
		z"/>
	<g id="Layer_3_1_">
		<rect x="-334.374" y="40.419" width="3.642" height="6.071"/>
		<circle cx="-332.519" cy="37.42" r="2.07"/>
		<path d="M-323.733,29.207h-13.215v20h13.215c2.857,0,5.143-0.785,6.787-2.142c1.999-1.714,2.999-4.284,2.999-7.859
			c0-1.571-0.214-3.07-0.786-4.499c-0.428-1.216-1.214-2.286-2.142-3.143C-318.805,29.92-321.234,29.133-323.733,29.207z
			 M-323.947,30.492c2.214-0.142,4.427,0.568,6.141,2c1.644,1.499,2.501,3.715,2.501,6.642c0,5.858-2.857,8.645-8.642,8.645h-11.643
			V30.418L-323.947,30.492z"/>
		<path fill="#CD0067" d="M-324.375,46.562h-4.644V32.134h4.5c3.859,0,8.001,1.501,8.001,7.214c0,5.999-4.144,7.213-8.001,7.213
			L-324.375,46.562L-324.375,46.562z"/>
		<path fill="#FFFFFF" d="M-329.803,35.847h1.284c0.215,0,0.428,0,0.643,0.072c0.215,0.074,0.356,0.146,0.499,0.359
			c0.145,0.143,0.286,0.357,0.357,0.572c0.072,0.285,0.143,0.568,0.143,0.783c0,0.216,0,0.501-0.071,0.715
			c-0.072,0.216-0.214,0.429-0.356,0.643c-0.143,0.142-0.285,0.214-0.501,0.286c-0.214,0.07-0.427,0.07-0.641,0.07h-1.285
			L-329.803,35.847z M-329.09,36.42v2.284h0.501c0.142,0,0.285,0,0.428,0c0.07,0,0.214-0.071,0.285-0.144
			c0.07-0.069,0.143-0.214,0.215-0.357c0.071-0.215,0.071-0.429,0.071-0.642c0-0.215,0-0.427-0.071-0.643
			c-0.071-0.142-0.071-0.215-0.215-0.358c-0.071-0.071-0.214-0.143-0.358-0.143c-0.214,0-0.356,0-0.571,0h-0.285V36.42z"/>
		<path fill="#FFFFFF" d="M-329.877,35.779v3.644h1.43c0.214,0,0.427,0,0.641-0.074c0.216-0.07,0.359-0.143,0.501-0.285
			c0.214-0.215,0.285-0.426,0.428-0.645c0.072-0.214,0.142-0.495,0.142-0.784c0-0.285,0-0.57-0.142-0.856
			c-0.071-0.216-0.215-0.429-0.356-0.571c-0.145-0.142-0.359-0.287-0.573-0.359c-0.212-0.068-0.498-0.068-0.713-0.068H-329.877z
			 M-328.519,35.991c0.215,0,0.428,0,0.643,0.071c0.215,0.07,0.356,0.145,0.499,0.286c0.145,0.144,0.215,0.358,0.286,0.5
			c0.07,0.287,0.142,0.499,0.07,0.786c0,0.213,0,0.5-0.07,0.713c-0.071,0.214-0.215,0.43-0.357,0.569
			c-0.143,0.146-0.285,0.216-0.428,0.287c-0.214,0.074-0.358,0.074-0.571,0.074h-1.213v-3.287H-328.519z"/>
		<path fill="#FFFFFF" d="M-329.232,36.348v2.5h0.643c0.142,0,0.285,0,0.428,0c0.141,0,0.214-0.07,0.285-0.144
			c0.07-0.071,0.143-0.213,0.215-0.357c0.071-0.213,0.071-0.426,0.071-0.642s0-0.428-0.071-0.642
			c-0.071-0.145-0.145-0.286-0.215-0.359c-0.071-0.072-0.214-0.144-0.358-0.215c-0.214,0-0.428,0-0.571,0L-329.232,36.348z
			 M-328.804,36.562c0.215,0,0.357,0,0.571,0c0.072,0,0.215,0.072,0.286,0.145c0.071,0.071,0.141,0.216,0.141,0.285
			c0.073,0.214,0.073,0.358,0.073,0.57c0,0.213,0,0.428-0.073,0.643c0,0.145-0.07,0.214-0.141,0.287s-0.143,0.073-0.214,0.146
			c-0.143,0-0.286,0-0.427,0h-0.43v-2.145L-328.804,36.562z"/>
		<path fill="#FFFFFF" d="M-326.089,39.348v-3.502h2.571v0.572h-1.859v0.784h1.714v0.572h-1.714v0.93h1.929v0.57L-326.089,39.348z"
			/>
		<path fill="#FFFFFF" d="M-326.234,35.779v3.644h2.858v-0.785h-1.929v-0.714h1.714v-0.787h-1.714v-0.572h1.856V35.78
			L-326.234,35.779L-326.234,35.779z M-323.662,35.991v0.428h-1.855v0.929h1.714v0.428h-1.714v1.142h1.928v0.428h-2.43v-3.282
			L-323.662,35.991z"/>
		<path fill="#FFFFFF" d="M-319.52,39.348h-0.787l-0.285-0.787h-1.356l-0.286,0.787h-0.715l1.357-3.502h0.716L-319.52,39.348z
			 M-320.875,37.99l-0.5-1.283l-0.501,1.283H-320.875z"/>
		<path fill="#FFFFFF" d="M-321.733,35.779l-1.429,3.644h0.929l0.286-0.785h1.284l0.287,0.785h1l-1.429-3.644H-321.733z
			 M-321.02,35.991l1.286,3.287h-0.573l-0.285-0.786h-1.5l-0.286,0.786h-0.571l1.286-3.287H-321.02z"/>
		<path fill="#FFFFFF" d="M-321.947,38.063h1.213l-0.641-1.643L-321.947,38.063z M-321.305,36.919l0.357,0.928h-0.644
			L-321.305,36.919z"/>
		<path fill="#FFFFFF" d="M-318.946,39.348v-3.429h0.712v2.858h1.715v0.57H-318.946z"/>
		<path fill="#FFFFFF" d="M-319.091,35.779v3.644h2.643v-0.785h-1.714v-2.858H-319.091z M-318.376,35.991v2.857h1.714v0.43h-2.286
			v-3.287H-318.376z"/>
	</g>
</g>
</svg>
